<svg width="16" height="16" viewBox="0 0 16 16" fill="none" xmlns="http://www.w3.org/2000/svg">
<path fill-rule="evenodd" clip-rule="evenodd" d="M7.72913 0.416992C7.24469 0.416992 6.85163 0.810054 6.85163 1.29449V6.85199H1.29413C0.809687 6.85199 0.416626 7.24505 0.416626 7.72949C0.416626 8.21393 0.809687 8.60699 1.29413 8.60699H6.85163V14.1645C6.85163 14.6489 7.24469 15.042 7.72913 15.042C8.21356 15.042 8.60663 14.6489 8.60663 14.1645V8.60699H14.1641C14.6486 8.60699 15.0416 8.21393 15.0416 7.72949C15.0416 7.24505 14.6486 6.85199 14.1641 6.85199H8.60663V1.29449C8.60663 0.810054 8.21356 0.416992 7.72913 0.416992Z" fill="black"/>
</svg>
