<svg width="21" height="21" viewBox="0 0 21 21" fill="none" xmlns="http://www.w3.org/2000/svg">
<path d="M10.6 6.85559L9.92795 6.18359L5.75195 10.3596L9.92795 14.5356L10.6 13.8636L7.57595 10.8396H14.344V9.87959H7.57595L10.6 6.85559Z" fill="black"/>
<path d="M10.12 0.0400391C4.55204 0.0400391 0.0400391 4.55204 0.0400391 10.12C0.0400391 15.688 4.55204 20.2 10.12 20.2C15.688 20.2 20.2 15.688 20.2 10.12C20.2 4.55204 15.688 0.0400391 10.12 0.0400391ZM10.12 19.24C5.08004 19.24 1.00004 15.16 1.00004 10.12C1.00004 5.08004 5.08004 1.00004 10.12 1.00004C15.16 1.00004 19.24 5.08004 19.24 10.12C19.24 15.16 15.16 19.24 10.12 19.24Z" fill="black"/>
</svg>
