<svg width="15" height="18" viewBox="0 0 15 18" fill="none" xmlns="http://www.w3.org/2000/svg">
<path d="M0.777499 4.35654V5.47974C0.777499 5.75809 1.00245 5.98229 1.28005 5.98229H2.1738V15.7774C2.1738 16.8577 3.05625 17.7408 4.13728 17.7408H11.5844C12.6648 17.7408 13.5479 16.8584 13.5479 15.7774L13.5472 5.98306H14.4409C14.7193 5.98306 14.9435 5.75811 14.9435 5.48051V4.35731C14.9435 3.58694 14.3175 2.96101 13.5419 2.96101L11.0706 2.96026V2.13648C11.0706 1.30142 10.3912 0.62207 9.55616 0.62207H6.15863C5.32958 0.62207 4.65025 1.3014 4.65025 2.13648V2.96554H2.1789C1.40853 2.96027 0.777499 3.58617 0.777499 4.35654ZM12.5414 15.7782C12.5414 16.3079 12.1134 16.7359 11.5837 16.7359H4.13733C3.6077 16.7359 3.17963 16.3079 3.17963 15.7782V5.98318H12.5414L12.5414 15.7782ZM13.9377 4.35654V4.97721H1.78341V4.35654C1.78341 4.13687 1.95494 3.97135 2.17385 3.97135H13.5368C13.7618 3.97135 13.9377 4.14213 13.9377 4.35654ZM5.65625 2.13652C5.65625 1.85817 5.8812 1.63397 6.1588 1.63397H9.55633C9.83469 1.63397 10.0589 1.85892 10.0589 2.13652V2.96558H5.65641L5.65625 2.13652Z" fill="#FF0000" fill-opacity="0.63"/>
<path d="M7.86095 15.2209C8.1393 15.2209 8.3635 14.996 8.3635 14.7184V7.99865C8.3635 7.72029 8.13855 7.49609 7.86095 7.49609C7.5826 7.49609 7.3584 7.72104 7.3584 7.99865V14.7236C7.3584 14.9967 7.5826 15.2209 7.86095 15.2209Z" fill="#FF0000" fill-opacity="0.63"/>
<path d="M10.5248 15.2209C10.8031 15.2209 11.0273 14.996 11.0273 14.7184L11.0281 7.99865C11.0281 7.72029 10.8031 7.49609 10.5255 7.49609C10.2471 7.49609 10.023 7.72104 10.023 7.99865V14.7236C10.0222 14.9967 10.2471 15.2209 10.5248 15.2209Z" fill="#FF0000" fill-opacity="0.63"/>
<path d="M5.19651 15.2209C5.47487 15.2209 5.69907 14.996 5.69907 14.7184V7.99865C5.69907 7.72029 5.47412 7.49609 5.19651 7.49609C4.91816 7.49609 4.69396 7.72104 4.69396 7.99865V14.7236C4.68794 14.9967 4.91816 15.2209 5.19651 15.2209Z" fill="#FF0000" fill-opacity="0.63"/>
</svg>
