<svg width="16" height="16" viewBox="0 0 16 16" fill="none" xmlns="http://www.w3.org/2000/svg">
<path d="M4.42881 8.6894L9.78979 3.32842L12.5056 6.04427L7.14318 11.4038C7.08982 11.4586 7.01626 11.4889 6.93981 11.4889H4.63215C4.47349 11.4889 4.34369 11.3591 4.34369 11.2004V8.89274C4.34369 8.8163 4.374 8.74277 4.42881 8.6894ZM14.7902 3.7582C14.959 3.58945 15.0527 3.36302 15.0527 3.12359C15.0527 2.88417 14.959 2.65918 14.7902 2.48899L13.3436 1.04238C13.1749 0.87363 12.9484 0.779876 12.709 0.779876C12.4696 0.779876 12.2446 0.873624 12.0744 1.04238L10.6047 2.51206L13.3206 5.22791L14.7902 3.7582ZM14.7282 6.585C14.4095 6.585 14.1513 6.84316 14.1513 7.16191V13.5095C14.1513 13.9854 13.7633 14.3734 13.2874 14.3734H2.323C1.84705 14.3734 1.45906 13.9854 1.45906 13.5095V2.54511C1.45906 2.06916 1.84705 1.68118 2.323 1.68118H8.67055C8.9893 1.68118 9.24747 1.42301 9.24747 1.10426C9.24747 0.785507 8.9893 0.527344 8.67055 0.527344H2.323C1.211 0.527344 0.305176 1.43309 0.305176 2.54517V13.5095C0.305176 14.6215 1.21092 15.5273 2.323 15.5273H13.2874C14.3994 15.5273 15.3052 14.6216 15.3052 13.5095V7.16197C15.3052 6.84322 15.047 6.585 14.7282 6.585Z" fill="#575757"/>
</svg>
