<svg width="14" height="14" viewBox="0 0 14 14" fill="none" xmlns="http://www.w3.org/2000/svg">
<path d="M11.8607 0.504883H2.48709C1.37989 0.504883 0.478546 1.40622 0.478546 2.51343V11.8864C0.478546 12.9943 1.37926 13.895 2.48709 13.895H11.8601C12.9679 13.895 13.8686 12.9943 13.8686 11.8864L13.8693 2.51343C13.8693 1.40622 12.9679 0.504883 11.8607 0.504883ZM6.50419 12.5562H2.48709C2.11802 12.5562 1.81736 12.2561 1.81736 11.8864V7.86934H6.50419V12.5562ZM6.50419 6.53052H1.81801V2.51343C1.81801 2.14373 2.11866 1.8437 2.48774 1.8437H6.50483L6.50419 6.53052ZM12.5298 11.8871C12.5298 12.2568 12.2298 12.5568 11.8601 12.5568H7.843V7.86998H12.5298V11.8871ZM12.5298 6.53052H7.843L7.84363 1.84434H11.8607C12.2304 1.84434 12.5305 2.14437 12.5305 2.51407L12.5298 6.53052Z" fill="black"/>
</svg>
