<svg width="16" height="16" viewBox="0 0 16 16" fill="none" xmlns="http://www.w3.org/2000/svg">
<path d="M0.869563 0.320793C0.444763 0.320793 0.181243 0.782553 0.396763 1.14879L6.355 9.09807V15.1322C6.355 15.5402 6.78412 15.8051 7.14892 15.6227L9.343 14.5254C9.52876 14.4323 9.64588 14.2427 9.64588 14.0349V9.09759L15.6041 1.14831C15.8201 0.782553 15.5566 0.320312 15.1313 0.320312L0.869563 0.320793ZM1.831 1.41807H14.1704L8.62492 8.66895C8.575 8.75343 8.5486 8.84991 8.54908 8.94783V13.696L7.4518 14.2446V8.94783C7.4518 8.84943 7.4254 8.75343 7.37596 8.66895L1.831 1.41807Z" fill="white"/>
</svg>
