<svg width="16" height="16" viewBox="0 0 16 16" fill="none" xmlns="http://www.w3.org/2000/svg">
<path fill-rule="evenodd" clip-rule="evenodd" d="M5.7467 15.4536H2.28003C2.08867 15.4536 1.93337 15.2983 1.93337 15.107V8.52031H0.893366C0.753313 8.52031 0.626776 8.43572 0.573042 8.30642C0.519309 8.17676 0.549126 8.02769 0.648273 7.92855L7.58161 0.995215C7.71681 0.859668 7.93659 0.859668 8.07179 0.995215L15.0051 7.92855C15.1043 8.02769 15.1341 8.17676 15.0804 8.30642C15.0266 8.43572 14.9001 8.52031 14.76 8.52031H13.72V15.107C13.72 15.2983 13.5647 15.4536 13.3734 15.4536H9.9067C9.81483 15.4536 9.72643 15.4172 9.66161 15.3521C9.59643 15.2872 9.56003 15.1988 9.56003 15.107C9.56003 15.107 9.56003 12.0029 9.56003 10.947C9.56003 10.7556 9.40473 10.6003 9.21337 10.6003C8.54915 10.6003 7.10425 10.6003 6.44003 10.6003C6.24867 10.6003 6.09337 10.7556 6.09337 10.947C6.09337 12.0029 6.09337 15.107 6.09337 15.107C6.09337 15.1988 6.05697 15.2872 5.99179 15.3521C5.92697 15.4172 5.83857 15.4536 5.7467 15.4536Z" fill="#3184C5"/>
</svg>
