<?xml version="1.0" encoding="utf-8"?>

<!DOCTYPE svg PUBLIC "-//W3C//DTD SVG 1.1//EN" "http://www.w3.org/Graphics/SVG/1.1/DTD/svg11.dtd">
<!-- Uploaded to: SVG Repo, www.svgrepo.com, Generator: SVG Repo Mixer Tools -->
<svg height="800px" width="800px" version="1.1" id="_x32_" xmlns="http://www.w3.org/2000/svg" xmlns:xlink="http://www.w3.org/1999/xlink" 
	 viewBox="0 0 512 512"  xml:space="preserve">
<style type="text/css">
	.st0{fill:#000000;}
</style>
<g>
	<path class="st0" d="M459.673,304.736l-26.129-15.54c-1.683-0.853-2.764-2.56-2.706-4.462l-0.049-25.512
		c0.016-1.869,1.072-3.617,2.755-4.446l25.885-15.458c3.918-1.992,5.665-6.656,3.958-10.744l-7.688-18.612
		c-1.683-4.056-6.234-6.168-10.42-4.794l-29.25,7.355c-1.772,0.585-3.764,0.122-5.064-1.204l-18.002-18.042
		c-1.349-1.301-1.804-3.276-1.244-5.08l7.477-29.478c1.349-4.194-0.732-8.737-4.796-10.403l-18.62-7.729
		c-4.063-1.666-8.778,0.032-10.76,3.958l-15.556,26.146c-0.861,1.675-2.576,2.731-4.454,2.747l-25.496-0.025
		c-1.886,0.017-3.592-1.04-4.478-2.714l-15.45-25.886c-1.975-3.942-6.665-5.657-10.745-3.974l-18.603,7.705
		c-4.08,1.699-6.177,6.242-4.796,10.427l7.364,29.226c0.585,1.772,0.114,3.788-1.252,5.096l-17.978,18.002
		c-1.365,1.358-3.332,1.828-5.112,1.235l-29.462-7.469c-4.218-1.366-8.761,0.707-10.419,4.787l-7.721,18.627
		c-1.683,4.064,0.048,8.762,3.942,10.728l26.17,15.564c1.666,0.854,2.73,2.576,2.723,4.462l0.008,25.503
		c-0.008,1.854-1.064,3.609-2.714,4.446l-25.886,15.475c-3.926,1.975-5.673,6.664-3.982,10.736l7.713,18.628
		c1.69,4.071,6.225,6.128,10.443,4.811l29.178-7.404c1.812-0.552,3.755-0.114,5.104,1.244l18.035,17.994
		c1.3,1.373,1.788,3.324,1.211,5.087l-7.485,29.502c-1.349,4.186,0.739,8.737,4.811,10.403l18.62,7.721
		c4.064,1.682,8.745-0.041,10.744-3.966l15.564-26.129c0.846-1.691,2.576-2.731,4.478-2.739l25.472-0.016
		c1.885-0.008,3.616,1.048,4.445,2.73l15.451,25.886c2.016,3.918,6.713,5.673,10.752,3.966l18.62-7.68
		c4.105-1.698,6.177-6.25,4.82-10.427l-7.355-29.243c-0.609-1.804-0.146-3.747,1.202-5.096l17.994-18.002
		c1.366-1.341,3.308-1.804,5.121-1.228l29.461,7.486c4.202,1.349,8.729-0.732,10.427-4.787l7.705-18.628
		C465.338,311.409,463.598,306.76,459.673,304.736z M385.039,293.838c-5.851,14.076-16.823,25.097-30.908,30.9
		c-14.109,5.835-29.625,5.819-43.718-0.017c-14.116-5.836-25.064-16.791-30.908-30.892c-5.836-14.061-5.868-29.633,0.016-43.701
		c5.803-14.076,16.792-25.081,30.885-30.924c14.109-5.812,29.616-5.836,43.733,0c14.077,5.827,25.057,16.848,30.893,30.916
		C390.883,264.205,390.874,279.768,385.039,293.838z"/>
	<path class="st0" d="M319.264,432.352H73.923V62.833h245.341v59.899h26.3V36.784C345.565,16.564,329.001,0,308.861,0H84.408
		c-20.23,0-36.704,16.564-36.704,36.784v438.423c0,20.23,16.474,36.793,36.704,36.793h224.453c20.14,0,36.704-16.563,36.704-36.793
		v-58.411h-26.3V432.352z M196.59,477.378c-6.071,0-10.98-4.91-10.98-10.988c0-6.071,4.909-11.07,10.98-11.07
		c6.08,0,11.07,4.998,11.07,11.07C207.66,472.468,202.67,477.378,196.59,477.378z"/>
</g>
</svg>