<svg width="13" height="13" viewBox="0 0 13 13" fill="none" xmlns="http://www.w3.org/2000/svg">
<path fill-rule="evenodd" clip-rule="evenodd" d="M6.61604 0.517578C6.21203 0.517578 5.88422 0.845382 5.88422 1.24939V5.88422H1.24939C0.845382 5.88422 0.517578 6.21203 0.517578 6.61604C0.517578 7.02005 0.845382 7.34785 1.24939 7.34785H5.88422V11.9827C5.88422 12.3867 6.21203 12.7145 6.61604 12.7145C7.02005 12.7145 7.34785 12.3867 7.34785 11.9827V7.34785H11.9827C12.3867 7.34785 12.7145 7.02005 12.7145 6.61604C12.7145 6.21203 12.3867 5.88422 11.9827 5.88422H7.34785V1.24939C7.34785 0.845382 7.02005 0.517578 6.61604 0.517578Z" fill="white"/>
</svg>
