<svg width="18" height="15" viewBox="0 0 18 15" fill="none" xmlns="http://www.w3.org/2000/svg">
<path d="M17.7796 1.76563C17.7588 1.32883 17.5508 0.933626 17.2388 0.642426C16.9268 0.351226 16.5108 0.205626 16.074 0.247226C15.6372 0.268026 15.242 0.476026 14.9716 0.788026L6.65159 10.148L2.84519 6.69523C2.53319 6.40403 2.11719 6.25843 1.68039 6.27923C1.24359 6.30003 0.848389 6.48723 0.577989 6.79923C0.286789 7.11123 0.141189 7.52723 0.161989 7.96403C0.182789 8.40083 0.369989 8.79603 0.681989 9.06643L5.69479 13.6216C5.98599 13.892 6.38119 14.0376 6.77639 14.0376H6.85959H6.88039C7.29639 14.0168 7.69159 13.8296 8.00359 13.4968L17.4052 2.90963C17.6548 2.59763 17.8004 2.18163 17.7796 1.76563Z" fill="black"/>
</svg>
