<svg width="16" height="16" viewBox="0 0 16 16" fill="none" xmlns="http://www.w3.org/2000/svg">
<path d="M6.28173 1.91063C5.39993 1.91063 4.53794 2.17212 3.80475 2.66202C3.07156 3.15191 2.50012 3.84823 2.16267 4.6629C1.82522 5.47757 1.73693 6.37402 1.90896 7.23887C2.08099 8.10372 2.50561 8.89814 3.12914 9.52166C3.75266 10.1452 4.54708 10.5698 5.41193 10.7418C6.27678 10.9139 7.17322 10.8256 7.9879 10.4881C8.80257 10.1507 9.49888 9.57923 9.98878 8.84605C10.4787 8.11286 10.7402 7.25087 10.7402 6.36907C10.7402 5.18662 10.2704 4.0526 9.43432 3.21648C8.5982 2.38036 7.46418 1.91063 6.28173 1.91063ZM6.28173 0.0625081C7.73655 0.0633693 9.14635 0.567086 10.2723 1.48833C11.3983 2.40958 12.1712 3.69172 12.4602 5.11756C12.7491 6.5434 12.5363 8.02529 11.8578 9.3122C11.1793 10.5991 10.0768 11.6119 8.73704 12.1791C7.19966 12.811 5.47497 12.8106 3.93789 12.178C2.4008 11.5453 1.17556 10.3315 0.52852 8.80038C-0.118524 7.26929 -0.135069 5.54468 0.482479 4.00145C1.10003 2.45822 2.30175 1.22112 3.82641 0.559071C4.60311 0.230044 5.43822 0.061152 6.28173 0.0625081Z" fill="#484848"/>
<path d="M15.743 14.4296L12.7033 11.3909C12.5534 11.2419 12.3507 11.1582 12.1394 11.1582C11.928 11.1582 11.7253 11.2419 11.5754 11.3909L11.3964 11.5699C11.2474 11.7198 11.1637 11.9225 11.1637 12.1338C11.1637 12.3452 11.2474 12.5479 11.3964 12.6977L14.4361 15.7362C14.5859 15.8852 14.7887 15.9689 15 15.9689C15.2113 15.9689 15.414 15.8852 15.5639 15.7362L15.743 15.5571C15.8919 15.4073 15.9755 15.2046 15.9755 14.9934C15.9755 14.7821 15.8919 14.5795 15.743 14.4296Z" fill="#484848"/>
</svg>
