<svg width="15" height="15" viewBox="0 0 15 15" fill="none" xmlns="http://www.w3.org/2000/svg">
<path d="M10.1574 0.164707C9.90869 0.257206 9.74243 0.494691 9.74118 0.759715V13.5597C9.74118 13.9135 10.0274 14.1997 10.3812 14.1997C10.7349 14.1997 11.0212 13.9135 11.0212 13.5597V2.33476L13.7412 5.12477C13.9887 5.37852 14.3949 5.38477 14.6499 5.13727C14.9049 4.88977 14.9099 4.48351 14.6624 4.22853L10.8224 0.312375C10.6474 0.138625 10.3887 0.0809569 10.1574 0.164707Z" fill="white"/>
<path d="M0.960038 10.0851L4.75492 13.9763H4.75617C4.83492 14.07 4.93867 14.1388 5.05617 14.175C5.12367 14.19 5.19242 14.1988 5.26117 14.2C5.47492 14.1988 5.67493 14.0913 5.79243 13.9125C5.87118 13.795 5.90993 13.6563 5.90118 13.515V0.760117C5.90118 0.406357 5.61493 0.120117 5.26118 0.120117C4.90743 0.120117 4.62118 0.406367 4.62118 0.760117V11.9851L1.90118 9.19506C1.65493 8.94131 1.24992 8.93381 0.996187 9.17881C0.741186 9.42506 0.733688 9.83008 0.979937 10.0851L0.960038 10.0851Z" fill="white"/>
</svg>
