<svg width="16" height="12" viewBox="0 0 16 12" fill="none" xmlns="http://www.w3.org/2000/svg">
<path d="M15.4289 1.57099C15.4113 1.20139 15.2353 0.866989 14.9713 0.620589C14.7073 0.374189 14.3553 0.250989 13.9857 0.286189C13.6161 0.303789 13.2817 0.479789 13.0529 0.743789L6.01287 8.66379L2.79207 5.74219C2.52807 5.49579 2.17607 5.37259 1.80647 5.39019C1.43687 5.40779 1.10247 5.56619 0.873674 5.83019C0.627274 6.09419 0.504074 6.44619 0.521674 6.81579C0.539274 7.18539 0.697674 7.51979 0.961674 7.74859L5.20327 11.603C5.44967 11.8318 5.78407 11.955 6.11847 11.955H6.18887H6.20647C6.55847 11.9374 6.89287 11.779 7.15687 11.4974L15.1121 2.53899C15.3233 2.27499 15.4465 1.92299 15.4289 1.57099Z" fill="white"/>
</svg>
