<svg width="86" height="81" viewBox="0 0 86 81" fill="none" xmlns="http://www.w3.org/2000/svg">
<path d="M53.0753 5.86892L84.5953 64.0212C88.6488 71.4957 82.8777 80.0229 74.5606 80.0229H11.5205C3.20341 80.0229 -2.56571 71.4957 1.48573 64.0212L33.0058 5.86892C37.2367 -1.93612 48.8443 -1.93612 53.0753 5.86892ZM81.0661 65.9184L49.5461 7.76816C46.8309 2.75996 39.2502 2.75996 36.537 7.76816L5.01697 65.9184C2.40373 70.7389 6.22669 76.0062 11.5205 76.0062H74.5606C79.8564 76.0062 83.6773 70.7389 81.0661 65.9184Z" fill="#3184C5"/>
<path fill-rule="evenodd" clip-rule="evenodd" d="M47.9333 25.4114L46.2584 50.9297C45.9687 55.4259 40.1425 55.6666 39.8243 50.7217L38.1617 25.4114C37.719 18.5855 48.3372 18.5855 47.9333 25.4114Z" fill="#3184C5"/>
<path fill-rule="evenodd" clip-rule="evenodd" d="M43.0468 59.3223C45.7314 59.3223 47.9081 61.4989 47.9081 64.1836C47.9081 66.8662 45.7314 69.0429 43.0468 69.0429C40.3642 69.0429 38.1875 66.8662 38.1875 64.1836C38.1875 61.4989 40.3642 59.3223 43.0468 59.3223Z" fill="#3184C5"/>
</svg>
