<svg width="23" height="17" viewBox="0 0 23 17" fill="none" xmlns="http://www.w3.org/2000/svg">
<path d="M21.2479 2.61445H17.7391V1.93445C17.7391 1.00965 16.9775 0.248047 16.0527 0.248047H2.67029C1.74549 0.248047 0.983887 1.00965 0.983887 1.93445V11.4816C0.983887 12.4064 1.74549 13.168 2.67029 13.168H7.40309L7.23989 14.3648H6.20629C5.98869 14.3648 5.79829 14.5552 5.79829 14.7728C5.79829 14.9904 5.98869 15.1808 6.20629 15.1808H12.4623C12.6799 15.1808 12.8703 14.9904 12.8703 14.7728C12.8703 14.5552 12.6799 14.3648 12.4623 14.3648H11.4287L11.2655 13.168H15.4543V14.6368C15.4543 15.4528 16.1343 16.1328 16.9503 16.1328H21.2207C22.0367 16.1328 22.7167 15.4528 22.7167 14.6368V4.11045C22.7439 3.29445 22.0639 2.61445 21.2479 2.61445ZM8.08309 14.392L8.24629 13.1952H10.4767L10.6399 14.392H8.08309ZM15.4815 12.352H2.69749C2.20789 12.352 1.82709 11.944 1.82709 11.4816V11.1008H15.5087V12.352H15.4815ZM15.4815 4.11045V10.2848H1.79989V1.93445C1.79989 1.44485 2.20789 1.06405 2.67029 1.06405H16.0255C16.5151 1.06405 16.8959 1.47205 16.8959 1.93445V2.61445C16.1343 2.64165 15.4815 3.29445 15.4815 4.11045ZM21.9279 14.6368C21.9279 15.0176 21.6287 15.3168 21.2479 15.3168H16.9775C16.5967 15.3168 16.2975 15.0176 16.2975 14.6368V4.11045C16.2975 3.72965 16.5967 3.43045 16.9775 3.43045H21.2479C21.6287 3.43045 21.9279 3.72965 21.9279 4.11045V14.6368Z" fill="black"/>
<path d="M20.8945 4.27344H17.3313C17.1137 4.27344 16.9233 4.46384 16.9233 4.68144C16.9233 4.89904 17.1137 5.08944 17.3313 5.08944H20.8945C21.1121 5.08944 21.3025 4.89904 21.3025 4.68144C21.3025 4.43664 21.1121 4.27344 20.8945 4.27344Z" fill="black"/>
<path d="M20.8945 5.68848H17.3313C17.1137 5.68848 16.9233 5.87888 16.9233 6.09648C16.9233 6.31408 17.1137 6.50448 17.3313 6.50448H20.8945C21.1121 6.50448 21.3025 6.31408 21.3025 6.09648C21.3025 5.85168 21.1121 5.68848 20.8945 5.68848Z" fill="black"/>
<path d="M20.8945 7.10254H17.3313C17.1137 7.10254 16.9233 7.29294 16.9233 7.51054C16.9233 7.72814 17.1137 7.91854 17.3313 7.91854H20.8945C21.1121 7.91854 21.3025 7.72814 21.3025 7.51054C21.3025 7.26574 21.1121 7.10254 20.8945 7.10254Z" fill="black"/>
<path d="M19.0994 11.1559C19.725 11.1559 20.2418 10.6391 20.2418 10.0135C20.2418 9.38789 19.725 8.87109 19.0994 8.87109C18.4738 8.87109 17.957 9.38789 17.957 10.0135C17.957 10.6391 18.4738 11.1559 19.0994 11.1559ZM19.0994 9.65989C19.2898 9.65989 19.4258 9.82309 19.4258 9.98629C19.4258 10.1767 19.2626 10.3127 19.0994 10.3127C18.9362 10.3127 18.773 10.1767 18.773 9.98629C18.773 9.82309 18.9362 9.65989 19.0994 9.65989Z" fill="black"/>
<path d="M19.0991 11.5361C18.3375 11.5361 17.7119 12.1617 17.7119 12.9233C17.7119 13.6849 18.3375 14.3105 19.0991 14.3105C19.8607 14.3105 20.4863 13.6849 20.4863 12.9233C20.5135 12.1617 19.8879 11.5361 19.0991 11.5361ZM19.0991 13.4945C18.7727 13.4945 18.5279 13.2497 18.5279 12.9233C18.5279 12.5969 18.7727 12.3521 19.0991 12.3521C19.4255 12.3521 19.6703 12.6241 19.6703 12.9233C19.6975 13.2497 19.4255 13.4945 19.0991 13.4945Z" fill="black"/>
</svg>
