<svg width="22" height="22" viewBox="0 0 22 22" fill="none" xmlns="http://www.w3.org/2000/svg">
<path d="M1.87046 14.3211H8.56015C9.42786 14.3211 10.1342 13.6148 10.1342 12.7471V2.12193C10.1342 1.25422 9.42786 0.547852 8.56015 0.547852H1.87046C1.00276 0.547852 0.296387 1.25422 0.296387 2.12193V12.7471C0.296387 13.6148 1.00276 14.3211 1.87046 14.3211ZM1.08342 2.12193C1.08342 1.68806 1.4366 1.33489 1.87046 1.33489H8.56015C8.99402 1.33489 9.34719 1.68806 9.34719 2.12193V12.7471C9.34719 13.1809 8.99402 13.5341 8.56015 13.5341H1.87046C1.4366 13.5341 1.08342 13.1809 1.08342 12.7471V2.12193Z" fill="black"/>
<path d="M1.87046 21.7984H8.56015C9.42786 21.7984 10.1342 21.092 10.1342 20.2243V17.4696C10.1342 16.6019 9.42786 15.8955 8.56015 15.8955H1.87046C1.00276 15.8955 0.296387 16.6019 0.296387 17.4696V20.2243C0.296387 21.092 1.00276 21.7984 1.87046 21.7984ZM1.08342 17.4696C1.08342 17.0357 1.4366 16.6825 1.87046 16.6825H8.56015C8.99402 16.6825 9.34719 17.0357 9.34719 17.4696V20.2243C9.34719 20.6582 8.99402 21.0114 8.56015 21.0114H1.87046C1.4366 21.0114 1.08342 20.6582 1.08342 20.2243V17.4696Z" fill="black"/>
<path d="M13.2826 21.7987H19.9723C20.84 21.7987 21.5463 21.0923 21.5463 20.2246V9.59946C21.5463 8.73176 20.84 8.02539 19.9723 8.02539H13.2826C12.4149 8.02539 11.7085 8.73176 11.7085 9.59946V20.2246C11.7085 21.0923 12.4149 21.7987 13.2826 21.7987ZM12.4955 9.59946C12.4955 9.1656 12.8487 8.81243 13.2826 8.81243H19.9723C20.4061 8.81243 20.7593 9.1656 20.7593 9.59946V20.2246C20.7593 20.6585 20.4061 21.0116 19.9723 21.0116H13.2826C12.8487 21.0116 12.4955 20.6585 12.4955 20.2246V9.59946Z" fill="black"/>
<path d="M13.2826 6.45076H19.9723C20.84 6.45076 21.5463 5.74439 21.5463 4.87668V2.12193C21.5463 1.25422 20.84 0.547852 19.9723 0.547852H13.2826C12.4149 0.547852 11.7085 1.25422 11.7085 2.12193V4.87668C11.7085 5.74439 12.4149 6.45076 13.2826 6.45076ZM12.4955 2.12193C12.4955 1.68806 12.8487 1.33489 13.2826 1.33489H19.9723C20.4061 1.33489 20.7593 1.68806 20.7593 2.12193V4.87668C20.7593 5.31055 20.4061 5.66372 19.9723 5.66372H13.2826C12.8487 5.66372 12.4955 5.31055 12.4955 4.87668V2.12193Z" fill="black"/>
</svg>
