<svg width="19" height="12" viewBox="0 0 19 12" fill="none" xmlns="http://www.w3.org/2000/svg">
<path d="M2.27198 0.288086C2.0078 0.288086 1.76532 0.367449 1.55798 0.498086L9.22998 7.19709C9.63539 7.55125 10.1259 7.55123 10.532 7.19709L18.218 0.491086C18.0113 0.361771 17.7667 0.288086 17.504 0.288086H2.27198ZM1.00498 1.19809C0.95842 1.33473 0.927979 1.4793 0.927979 1.63209V10.5921C0.927979 11.3367 1.52742 11.9361 2.27198 11.9361H17.504C18.2485 11.9361 18.848 11.3367 18.848 10.5921V1.63209C18.848 1.4793 18.8175 1.33473 18.771 1.19809L11.12 7.87609C10.4072 8.4978 9.35461 8.49166 8.64198 7.86914L1.00498 1.19809Z" fill="#9F9F9F"/>
</svg>
