<?xml version="1.0" encoding="utf-8"?>
<!-- Generator: Adobe Illustrator 27.5.0, SVG Export Plug-In . SVG Version: 6.00 Build 0)  -->
<svg version="1.1" xmlns="http://www.w3.org/2000/svg" xmlns:xlink="http://www.w3.org/1999/xlink" x="0px" y="0px"
	 viewBox="0 0 2200 2200" style="enable-background:new 0 0 2200 2200;" xml:space="preserve">
<g id="Background">
	<rect style="fill:none;" width="2200" height="2200"/>
</g>
<g id="Objects">
	<g>
		<path d="M1100,1970.174c-118.241,0-232.902-23.308-340.798-69.277c-104.2-44.395-197.614-107.899-277.645-188.748
			c-78.968-79.775-140.945-172.469-184.21-275.509c-44.8-106.696-67.516-219.956-67.516-336.635
			c0-117.46,23.011-231.422,68.394-338.722c43.828-103.624,106.566-196.681,186.471-276.588s172.961-142.645,276.584-186.474
			C868.578,252.838,982.54,229.826,1100,229.826s231.422,23.012,338.721,68.396c103.623,43.829,196.679,106.568,276.584,186.474
			c79.905,79.906,142.642,172.963,186.471,276.588c45.383,107.3,68.394,221.262,68.394,338.722
			c0,116.679-22.716,229.939-67.515,336.635c-43.265,103.04-105.243,195.734-184.21,275.509
			c-80.032,80.849-173.446,144.353-277.646,188.748C1332.902,1946.866,1218.241,1970.174,1100,1970.174z M1100,291.105
			c-109.214,0-215.144,21.383-314.849,63.555c-96.318,40.74-182.827,99.068-257.124,173.366
			c-74.297,74.298-132.625,160.808-173.364,257.128c-42.171,99.706-63.553,205.636-63.553,314.851
			c0,108.488,21.108,213.767,62.737,312.91c40.215,95.776,97.835,181.948,171.26,256.122
			c74.416,75.176,161.258,134.217,258.114,175.483c100.259,42.715,206.839,64.374,316.779,64.374s216.52-21.659,316.779-64.374
			c96.856-41.265,183.698-100.307,258.114-175.483c73.425-74.175,131.045-160.347,171.26-256.122
			c41.63-99.143,62.737-204.422,62.737-312.91c0-109.214-21.383-215.145-63.554-314.851
			c-40.739-96.319-99.066-182.83-173.363-257.128c-74.296-74.298-160.806-132.626-257.123-173.366
			C1315.144,312.488,1209.214,291.105,1100,291.105z"/>
		<g>
			<path d="M1424.849,1571.179c-57.131,23.369-159.475,50.844-324.849,50.844s-267.718-27.476-324.849-50.844
				c-37.981-15.535-60.985-54.356-56.506-95.149c7.492-68.202,29.112-136.091,78.521-166.84
				c91.05-56.662,181.43-80.805,181.43-80.805c3.184-9.91,6.763-42.698,8.638-76.267c-11.532-11.978-22.96-24.477-35.012-36.322
				c-22.945-22.55-25.526-54.78-33.718-96.354c-15.051,4.278-19.813-2.887-23.808-8.98c-2.723-4.166-3.794-9.159-4.814-14.032
				c-3.668-17.521-7.328-35.042-10.989-52.563c-2.753-13.161-5.52-26.642-3.653-39.96c0.893-6.294,3.132-12.893,8.303-16.599
				c5.171-3.698,13.808-2.805,16.398,3.006c0,0-8.385-82.464-8.385-75.523c-7.001-7.775-12.544-24.708-10.222-37.795
				c2.314-13.079,6.473-25.809,8.548-38.926c2.269-14.404,2.031-29.269,6.168-43.256c5.833-19.716,19.775-35.875,33.963-50.748
				c10.051-10.535,20.445-20.772,31.783-29.901c22.707-18.25,49.773-31.984,78.729-35.228c9.292-1.034,18.667-0.99,28.011-0.945
				c10.483,0.052,20.973,0.104,31.463,0.156c10.49-0.052,20.981-0.104,31.463-0.156c9.345-0.045,18.719-0.089,28.011,0.945
				c28.956,3.244,56.023,16.978,78.729,35.228c11.338,9.129,21.732,19.366,31.783,29.901c14.188,14.872,28.13,31.032,33.963,50.748
				c4.137,13.987,3.899,28.852,6.168,43.256c2.076,13.117,6.235,25.846,8.548,38.926c2.321,13.087-3.221,30.02-10.222,37.795
				c0-6.941-8.385,75.523-8.385,75.523c2.589-5.811,11.227-6.703,16.398-3.006c5.171,3.705,7.41,10.304,8.303,16.599
				c1.867,13.317-0.9,26.799-3.653,39.96c-3.66,17.521-7.321,35.042-10.989,52.563c-1.019,4.873-2.091,9.865-4.814,14.032
				c-3.995,6.093-8.757,13.258-23.808,8.98c-8.191,41.574-10.773,73.804-33.718,96.354c-12.053,11.844-23.48,24.343-35.012,36.322
				c1.875,33.569,5.453,66.357,8.638,76.267c0,0,90.38,24.143,181.43,80.805c49.408,30.749,71.029,98.638,78.521,166.84
				C1485.834,1516.823,1462.83,1555.645,1424.849,1571.179z"/>
		</g>
		<g>
			<path d="M947.08,1214.746c-34.142,11.391-97.456,35.503-161.707,75.493c-26.895,16.74-48.33,43.509-63.716,79.57
				c-12.328,28.897-20.809,63.82-25.199,103.787c-0.774,7.016-0.9,14.009-0.409,20.914c-107.15-4.568-176.282-23.845-217.134-40.555
				c-31.039-12.693-49.84-44.424-46.18-77.762c6.123-55.747,23.793-111.234,64.177-136.366
				c74.414-46.306,148.285-66.044,148.285-66.044c2.604-8.095,5.528-34.893,7.06-62.332c-9.426-9.791-18.763-20.006-28.614-29.685
				c-18.756-18.429-20.869-44.773-27.557-78.752c-12.306,3.497-16.197-2.358-19.463-7.343c-2.225-3.407-3.102-7.485-3.936-11.465
				c-2.998-14.322-5.989-28.644-8.98-42.966c-2.247-10.758-4.509-21.777-2.983-32.661c0.729-5.141,2.559-10.535,6.785-13.563
				c4.226-3.021,11.286-2.291,13.399,2.455c0,0-6.852-67.398-6.852-61.722c-5.721-6.354-10.252-20.199-8.355-30.891
				c1.89-10.691,5.29-21.1,6.986-31.82c1.86-11.77,1.659-23.919,5.044-35.355c4.769-16.107,16.159-29.321,27.758-41.47
				c8.214-8.615,16.71-16.978,25.98-24.44c18.555-14.917,40.674-26.144,64.34-28.792c7.596-0.848,15.259-0.811,22.9-0.774
				c8.563,0.045,17.142,0.082,25.712,0.126c8.578-0.045,17.149-0.082,25.72-0.126c7.633-0.037,15.297-0.074,22.893,0.774
				c23.666,2.649,45.785,13.875,64.348,28.792c6.138,4.94,11.934,10.282,17.536,15.825c-0.097,0.298-0.186,0.588-0.275,0.885
				c-3.251,10.989-4.271,21.978-5.171,31.672c-0.476,5.096-0.923,9.903-1.637,14.426c-0.952,6.026-2.485,12.231-4.099,18.793
				c-1.555,6.324-3.169,12.856-4.382,19.723c-2.879,16.234,1.793,36.709,11.056,50.703c0.975,8.154,2.738,24.507,4.635,42.66
				c-1.577,0.789-3.08,1.689-4.509,2.708c-6.555,4.702-14.902,14.002-17.402,31.642c-2.425,17.313,0.937,33.42,3.906,47.623
				c3.66,17.521,7.328,35.042,10.996,52.563c1.228,5.878,2.909,13.927,7.991,21.702c1.986,3.021,5.29,8.057,10.661,12.358
				c-3.988,18.964-9.114,34.558-21.479,46.708c-9.85,9.679-19.195,19.894-28.621,29.685c1.533,27.438,4.457,54.237,7.06,62.332
				C843.65,1173.782,890.455,1186.288,947.08,1214.746z"/>
		</g>
		<g>
			<path d="M1252.92,1214.746c34.142,11.391,97.456,35.503,161.707,75.493c26.895,16.74,48.33,43.509,63.715,79.57
				c12.328,28.897,20.809,63.82,25.199,103.787c0.774,7.016,0.9,14.009,0.409,20.914c107.15-4.568,176.281-23.845,217.134-40.555
				c31.039-12.693,49.84-44.424,46.18-77.762c-6.123-55.747-23.793-111.234-64.177-136.366
				c-74.414-46.306-148.285-66.044-148.285-66.044c-2.604-8.095-5.528-34.893-7.06-62.332c9.426-9.791,18.763-20.006,28.614-29.685
				c18.756-18.429,20.869-44.773,27.557-78.752c12.306,3.497,16.197-2.358,19.463-7.343c2.225-3.407,3.103-7.485,3.936-11.465
				c2.998-14.322,5.989-28.644,8.98-42.966c2.247-10.758,4.509-21.777,2.983-32.661c-0.729-5.141-2.559-10.535-6.785-13.563
				c-4.226-3.021-11.286-2.291-13.399,2.455c0,0,6.852-67.398,6.852-61.722c5.721-6.354,10.252-20.199,8.355-30.891
				c-1.89-10.691-5.29-21.1-6.986-31.82c-1.86-11.77-1.659-23.919-5.044-35.355c-4.769-16.107-16.159-29.321-27.758-41.47
				c-8.214-8.615-16.71-16.978-25.98-24.44c-18.555-14.917-40.674-26.144-64.34-28.792c-7.596-0.848-15.259-0.811-22.9-0.774
				c-8.563,0.045-17.142,0.082-25.712,0.126c-8.578-0.045-17.149-0.082-25.72-0.126c-7.633-0.037-15.297-0.074-22.893,0.774
				c-23.666,2.649-45.785,13.875-64.348,28.792c-6.138,4.94-11.934,10.282-17.536,15.825c0.097,0.298,0.186,0.588,0.275,0.885
				c3.251,10.989,4.271,21.978,5.171,31.672c0.476,5.096,0.923,9.903,1.637,14.426c0.952,6.026,2.485,12.231,4.099,18.793
				c1.555,6.324,3.169,12.856,4.382,19.723c2.879,16.234-1.793,36.709-11.056,50.703c-0.975,8.154-2.738,24.507-4.635,42.66
				c1.577,0.789,3.08,1.689,4.509,2.708c6.555,4.702,14.902,14.002,17.402,31.642c2.425,17.313-0.937,33.42-3.906,47.623
				c-3.66,17.521-7.328,35.042-10.996,52.563c-1.228,5.878-2.909,13.927-7.991,21.702c-1.986,3.021-5.29,8.057-10.661,12.358
				c3.988,18.964,9.114,34.558,21.479,46.708c9.85,9.679,19.195,19.894,28.621,29.685c-1.533,27.438-4.457,54.237-7.061,62.332
				C1356.35,1173.782,1309.545,1186.288,1252.92,1214.746z"/>
		</g>
	</g>
</g>
</svg>
