<svg width="500" height="500" viewBox="0 0 500 500" fill="none" xmlns="http://www.w3.org/2000/svg">
<path d="M88.45 442.21C178.65 495.45 324.91 495.45 415.12 442.21C505.33 388.97 505.33 302.65 415.12 249.42C324.91 196.19 178.65 196.18 88.44 249.42C-1.77002 302.66 -1.76003 389 88.45 442.21Z" fill="#F5F5F5"/>
<path d="M391.14 431.05C415.545 431.05 435.33 419.629 435.33 405.54C435.33 391.451 415.545 380.03 391.14 380.03C366.734 380.03 346.95 391.451 346.95 405.54C346.95 419.629 366.734 431.05 391.14 431.05Z" fill="#E0E0E0"/>
<path d="M363.42 77.1401L371.09 81.5701C371.048 81.2384 371.025 80.9045 371.02 80.5701V78.3301C371.02 74.3301 373.8 72.7701 377.22 74.7501C378.693 75.6551 379.955 76.8657 380.92 78.3001C381.48 73.3001 385.38 71.4801 390.12 74.2101C395.24 77.2101 399.39 84.3601 399.39 90.2801V93.6001C399.424 94.9259 399.157 96.2421 398.61 97.4501L404.97 101.13C405.977 101.787 406.814 102.673 407.412 103.716C408.01 104.759 408.352 105.929 408.41 107.13C408.41 109.32 406.87 110.21 404.97 109.13L363.42 85.1301C362.413 84.4734 361.576 83.5872 360.978 82.5441C360.38 81.5011 360.038 80.3311 359.98 79.1301C360 76.9301 361.52 76.0001 363.42 77.1401Z" fill="#EBEBEB"/>
<path d="M330.6 99.4803L336.39 102.82C336.359 102.568 336.342 102.314 336.34 102.06V100.38C336.34 97.3803 338.44 96.1903 341.02 97.6803C342.133 98.3608 343.085 99.2753 343.81 100.36C344.23 96.6103 347.17 95.2103 350.75 97.2703C352.788 98.5997 354.484 100.391 355.7 102.498C356.916 104.606 357.619 106.971 357.75 109.4V111.91C357.777 112.909 357.575 113.901 357.16 114.81L361.96 117.59C362.716 118.081 363.346 118.744 363.797 119.524C364.249 120.304 364.51 121.18 364.56 122.08C364.56 123.74 363.4 124.41 361.96 123.58L330.6 105.47C329.847 104.981 329.219 104.322 328.767 103.545C328.315 102.769 328.053 101.897 328 101C328 99.3203 329.17 98.6503 330.6 99.4803Z" fill="#EBEBEB"/>
<path d="M73.88 288.62C73.31 288.93 62.88 291.9 58.98 286.78C55.08 281.66 61.53 273.69 57.9 270.78C54.27 267.87 44.09 270.78 41.64 264.61C39.19 258.44 46.45 255.76 42.37 249.53C39.8 245.61 33.48 243.41 32.92 239.78C32 233.72 42.04 230.93 50.64 236.66C59.24 242.39 64.43 239.76 67.16 239.37C69.89 238.98 75.76 239.84 75.57 249.37C75.38 258.9 73.88 288.62 73.88 288.62Z" fill="#3184C5"/>
<path d="M74.57 275C74.4343 275.002 74.3028 274.954 74.1998 274.865C74.0968 274.777 74.0293 274.654 74.01 274.52C71.01 256.36 49.9 241.57 38.92 238.4C38.7741 238.359 38.6505 238.262 38.5765 238.13C38.5024 237.997 38.4839 237.841 38.525 237.695C38.5661 237.549 38.6634 237.426 38.7957 237.352C38.9279 237.278 39.0841 237.259 39.23 237.3C50.46 240.55 72.06 255.7 75.13 274.3C75.1531 274.449 75.1167 274.6 75.0287 274.722C74.9406 274.844 74.8081 274.926 74.66 274.95L74.57 275Z" fill="white"/>
<path d="M49.67 259.8C49.5442 259.805 49.4205 259.766 49.3191 259.692C49.2176 259.617 49.1442 259.511 49.1107 259.39C49.0772 259.268 49.0855 259.139 49.1344 259.023C49.1832 258.907 49.2697 258.811 49.38 258.75C49.72 258.54 57.84 253.75 65.85 256.01C65.9952 256.054 66.1177 256.153 66.1922 256.285C66.2667 256.417 66.2874 256.573 66.25 256.72C66.2081 256.864 66.1111 256.986 65.9801 257.059C65.849 257.132 65.6945 257.15 65.55 257.11C58 255 50 259.68 50 259.73C49.8991 259.785 49.7844 259.809 49.67 259.8Z" fill="white"/>
<path d="M77.9301 295.6C78.0369 297.054 78.4846 298.463 79.2368 299.712C79.989 300.961 81.0247 302.015 82.2601 302.79L203.59 372.79C204.932 373.471 206.415 373.826 207.92 373.826C209.425 373.826 210.908 373.471 212.25 372.79L378.25 276.94C379.558 276.249 380.654 275.215 381.418 273.948C382.181 272.681 382.585 271.229 382.585 269.75C382.585 268.271 382.181 266.819 381.418 265.552C380.654 264.285 379.558 263.251 378.25 262.56L256.93 192.56C255.588 191.879 254.105 191.524 252.6 191.524C251.095 191.524 249.612 191.879 248.27 192.56L82.2701 288.41C81.0328 289.183 79.9952 290.237 79.2412 291.487C78.4872 292.736 78.038 294.145 77.9301 295.6Z" fill="#37474F"/>
<path d="M207.92 364.5V373.87C206.415 373.911 204.925 373.567 203.59 372.87L82.2601 302.87C80.9916 302.202 79.923 301.209 79.1631 299.993C78.4033 298.777 77.9795 297.381 77.9347 295.948C77.89 294.515 78.226 293.096 78.9086 291.835C79.5911 290.574 80.5957 289.516 81.8201 288.77C79.8801 290.16 80.0301 292.2 82.2601 293.49L203.59 363.49C204.924 364.191 206.414 364.538 207.92 364.5Z" fill="#263238"/>
<path d="M73.8701 288.56C72.6628 287.743 71.6658 286.652 70.9602 285.377C70.2547 284.101 69.8606 282.677 69.8101 281.22V136.43C69.8921 134.928 70.3269 133.466 71.0792 132.163C71.8315 130.86 72.8801 129.752 74.1401 128.93L240.14 33.0901C241.428 32.4078 242.859 32.0378 244.316 32.01C245.773 31.9822 247.217 32.2974 248.53 32.9301C249.738 33.7493 250.736 34.8417 251.443 36.1187C252.151 37.3957 252.547 38.8213 252.6 40.2801V185.06C252.52 186.563 252.085 188.025 251.333 189.328C250.581 190.632 249.531 191.739 248.27 192.56L82.2701 288.41C80.9806 289.095 79.5477 289.465 78.088 289.491C76.6283 289.517 75.1831 289.198 73.8701 288.56Z" fill="#455A64"/>
<path d="M81.7501 288.67C80.5086 289.23 79.1595 289.51 77.7978 289.491C76.4362 289.472 75.0954 289.154 73.8701 288.56C72.6645 287.741 71.6688 286.65 70.9634 285.375C70.2581 284.1 69.863 282.676 69.8101 281.22V136.43C69.8592 134.924 70.2967 133.457 71.0801 132.17L79.2001 136.85C78.4224 138.139 77.9854 139.605 77.9301 141.11V285.91C77.9301 288.47 79.6001 289.62 81.7501 288.67Z" fill="#263238"/>
<path d="M77.9301 141.12V285.91C77.9301 288.67 79.8701 289.79 82.2601 288.41L248.26 192.56C249.521 191.739 250.571 190.632 251.323 189.329C252.075 188.025 252.51 186.563 252.59 185.06V40.2803C252.59 37.5203 250.65 36.4003 248.26 37.7803L82.2601 133.62C81.0006 134.443 79.9524 135.551 79.2002 136.854C78.4481 138.157 78.0129 139.618 77.9301 141.12Z" fill="#37474F"/>
<path d="M82.26 293.41L203.59 363.41C204.932 364.091 206.415 364.446 207.92 364.446C209.425 364.446 210.908 364.091 212.25 363.41L378.25 267.56C380.64 266.18 380.64 263.94 378.25 262.56L256.93 192.56C255.588 191.879 254.105 191.524 252.6 191.524C251.095 191.524 249.612 191.879 248.27 192.56L82.27 288.41C79.87 289.79 79.87 292 82.26 293.41Z" fill="#455A64"/>
<path d="M84.5901 141.66L244.59 49.2799C246.03 48.4499 247.19 49.1199 247.19 50.7799V176.11C247.142 177.012 246.881 177.89 246.43 178.672C245.978 179.454 245.347 180.118 244.59 180.61L84.5901 273C83.1501 273.83 81.9901 273.16 81.9901 271.5V146.16C82.0382 145.258 82.2988 144.38 82.7506 143.598C83.2024 142.816 83.8327 142.152 84.5901 141.66Z" fill="white"/>
<path opacity="0.6" d="M84.6 141.736L244.6 49.3561C246.04 48.5261 247.2 49.1961 247.2 50.8561V176.186C247.152 177.088 246.891 177.966 246.44 178.748C245.988 179.53 245.357 180.194 244.6 180.686L84.6 273.076C83.16 273.906 82 273.236 82 271.576V146.236C82.0481 145.334 82.3086 144.456 82.7605 143.674C83.2123 142.892 83.8426 142.228 84.6 141.736Z" fill="#3184C5"/>
<path d="M164.27 133.73C168.53 131.27 171.99 133.27 171.99 138.19C171.843 140.867 171.068 143.472 169.727 145.793C168.386 148.114 166.516 150.087 164.27 151.55C160.01 154.01 156.56 152.02 156.56 147.1C156.704 144.423 157.477 141.816 158.817 139.494C160.156 137.171 162.025 135.196 164.27 133.73Z" fill="#F0F0F0"/>
<path d="M179.48 160.05C179.48 151.97 173.8 148.38 166.8 152.42L162.43 155C155.43 159 149.75 168.87 149.75 177V179.18L179.48 162.02V160.05Z" fill="#F0F0F0"/>
<path d="M194.51 164C194.23 163.35 193.51 163.19 192.7 163.65L140.78 193.65C140.223 194.017 139.759 194.509 139.425 195.088C139.092 195.666 138.898 196.314 138.86 196.98V203.08C138.86 204.08 139.48 204.63 140.32 204.4L140.46 204.35C140.57 204.306 140.676 204.256 140.78 204.2L192.7 174.2C193.26 173.836 193.725 173.344 194.059 172.765C194.393 172.187 194.585 171.537 194.62 170.87V164.8C194.629 164.529 194.592 164.259 194.51 164Z" fill="#F0F0F0"/>
<path d="M145.47 194.41C146.47 193.82 147.3 194.3 147.3 195.46C147.268 196.094 147.085 196.712 146.767 197.261C146.448 197.811 146.004 198.276 145.47 198.62C144.47 199.2 143.65 198.73 143.65 197.56C143.683 196.929 143.865 196.314 144.181 195.766C144.498 195.219 144.939 194.754 145.47 194.41Z" fill="#3184C5"/>
<path d="M151.51 190.92C152.51 190.34 153.33 190.81 153.33 191.98C153.297 192.612 153.115 193.226 152.799 193.774C152.483 194.322 152.041 194.786 151.51 195.13C150.51 195.72 149.68 195.24 149.68 194.13C149.705 193.487 149.884 192.86 150.202 192.301C150.521 191.742 150.969 191.269 151.51 190.92Z" fill="#3184C5"/>
<path d="M157.54 187.44C158.54 186.86 159.36 187.33 159.36 188.49C159.329 189.123 159.148 189.74 158.831 190.289C158.515 190.839 158.072 191.305 157.54 191.65C156.54 192.23 155.71 191.76 155.71 190.6C155.742 189.966 155.925 189.348 156.243 188.799C156.562 188.249 157.006 187.784 157.54 187.44Z" fill="#3184C5"/>
<path d="M163.57 184C164.57 183.41 165.4 183.89 165.4 185C165.368 185.634 165.185 186.252 164.867 186.801C164.548 187.351 164.104 187.817 163.57 188.16C162.57 188.74 161.75 188.27 161.75 187.16C161.781 186.527 161.963 185.91 162.279 185.361C162.595 184.811 163.038 184.345 163.57 184Z" fill="#3184C5"/>
<path d="M169.6 180.47C170.6 179.89 171.43 180.36 171.43 181.53C171.394 182.163 171.209 182.779 170.891 183.328C170.574 183.877 170.131 184.343 169.6 184.69C168.6 185.27 167.78 184.8 167.78 183.63C167.815 182.998 167.998 182.382 168.314 181.833C168.63 181.285 169.071 180.818 169.6 180.47Z" fill="#3184C5"/>
<path d="M175.64 177C176.64 176.42 177.46 176.89 177.46 178C177.429 178.633 177.248 179.25 176.931 179.8C176.615 180.349 176.172 180.815 175.64 181.16C174.64 181.74 173.81 181.27 173.81 180.16C173.842 179.526 174.025 178.909 174.343 178.359C174.662 177.81 175.106 177.344 175.64 177Z" fill="#3184C5"/>
<path d="M181.67 173.51C182.67 172.93 183.49 173.4 183.49 174.56C183.459 175.193 183.278 175.81 182.961 176.36C182.645 176.909 182.202 177.375 181.67 177.72C180.67 178.3 179.85 177.83 179.85 176.67C179.881 176.037 180.063 175.42 180.379 174.871C180.695 174.321 181.138 173.855 181.67 173.51Z" fill="#3184C5"/>
<path d="M187.7 170C188.7 169.42 189.53 169.89 189.53 171.06C189.494 171.693 189.309 172.309 188.991 172.858C188.674 173.407 188.231 173.874 187.7 174.22C186.7 174.8 185.88 174.33 185.88 173.16C185.917 172.528 186.1 171.913 186.416 171.365C186.732 170.816 187.172 170.349 187.7 170Z" fill="#3184C5"/>
<path d="M96.3401 289.66L250.43 200.66C251.101 200.32 251.843 200.143 252.595 200.143C253.347 200.143 254.089 200.32 254.76 200.66L262.64 205.21C262.901 205.299 263.128 205.467 263.289 205.691C263.449 205.916 263.536 206.184 263.536 206.46C263.536 206.736 263.449 207.005 263.289 207.229C263.128 207.453 262.901 207.622 262.64 207.71L108.53 296.7C107.859 297.04 107.117 297.217 106.365 297.217C105.613 297.217 104.871 297.04 104.2 296.7L96.3401 292.16C96.0789 292.072 95.852 291.903 95.6913 291.679C95.5306 291.455 95.4442 291.186 95.4442 290.91C95.4442 290.634 95.5306 290.366 95.6913 290.141C95.852 289.917 96.0789 289.749 96.3401 289.66Z" fill="#37474F"/>
<path d="M116.65 301.39L270.74 212.39C271.411 212.05 272.153 211.873 272.905 211.873C273.657 211.873 274.399 212.05 275.07 212.39L323.55 240.39C323.811 240.479 324.038 240.647 324.199 240.871C324.36 241.096 324.446 241.364 324.446 241.64C324.446 241.916 324.36 242.185 324.199 242.409C324.038 242.633 323.811 242.802 323.55 242.89L169.64 331.75C168.967 332.088 168.224 332.264 167.47 332.264C166.717 332.264 165.974 332.088 165.3 331.75L116.66 303.87C116.401 303.783 116.175 303.617 116.015 303.395C115.855 303.174 115.769 302.907 115.768 302.634C115.766 302.36 115.851 302.093 116.009 301.87C116.168 301.647 116.392 301.479 116.65 301.39Z" fill="#263238"/>
<path d="M254.78 252.45L259.61 249.66C259.81 249.54 259.8 249.34 259.61 249.22L254 246C253.881 245.939 253.749 245.907 253.615 245.907C253.481 245.907 253.349 245.939 253.23 246L248.4 248.79C248.2 248.9 248.21 249.1 248.4 249.23L253.98 252.45C254.103 252.517 254.24 252.552 254.38 252.552C254.52 252.552 254.657 252.517 254.78 252.45ZM245.26 241.38L240.44 244.16C240.23 244.28 240.24 244.48 240.44 244.61L246.02 247.83C246.14 247.889 246.272 247.92 246.405 247.92C246.539 247.92 246.67 247.889 246.79 247.83L251.62 245.04C251.82 244.92 251.81 244.72 251.62 244.6L246 241.4C245.886 241.341 245.761 241.308 245.632 241.304C245.504 241.301 245.377 241.327 245.26 241.38ZM229.67 250.38L221.51 255.09C221.3 255.21 221.32 255.41 221.51 255.54L227.08 258.76C227.2 258.819 227.332 258.85 227.465 258.85C227.599 258.85 227.73 258.819 227.85 258.76L236.02 254.05C236.22 253.93 236.21 253.73 236.02 253.61L230.44 250.38C230.32 250.321 230.189 250.29 230.055 250.29C229.922 250.29 229.79 250.321 229.67 250.38ZM238.21 245.45L233.38 248.24C233.18 248.35 233.19 248.55 233.38 248.68L239 251.9C239.12 251.959 239.252 251.99 239.385 251.99C239.519 251.99 239.65 251.959 239.77 251.9L244.59 249.11C244.8 248.99 244.79 248.79 244.59 248.67L239 245.47C238.88 245.402 238.745 245.365 238.608 245.362C238.47 245.358 238.333 245.389 238.21 245.45ZM219.28 256.38L214.46 259.16C214.25 259.28 214.26 259.48 214.46 259.61L220.04 262.83C220.159 262.892 220.291 262.924 220.425 262.924C220.559 262.924 220.691 262.892 220.81 262.83L225.64 260.05C225.84 259.93 225.83 259.73 225.64 259.6L220.06 256.38C219.939 256.32 219.806 256.288 219.67 256.288C219.535 256.288 219.401 256.32 219.28 256.38ZM212.23 260.45L207.41 263.23C207.2 263.35 207.21 263.55 207.41 263.68L213 266.9C213.12 266.959 213.252 266.99 213.385 266.99C213.519 266.99 213.65 266.959 213.77 266.9L218.6 264.11C218.8 263.99 218.79 263.79 218.6 263.67L213 260.47C212.883 260.406 212.751 260.37 212.618 260.367C212.484 260.363 212.351 260.392 212.23 260.45ZM234.17 273.55L239 270.76C239.2 270.64 239.19 270.44 239 270.32L233.42 267.1C233.301 267.039 233.169 267.007 233.035 267.007C232.901 267.007 232.769 267.039 232.65 267.1L227.83 269.89C227.62 270 227.64 270.2 227.83 270.33L233.4 273.55C233.519 273.612 233.651 273.644 233.785 273.644C233.919 273.644 234.051 273.612 234.17 273.55ZM227.17 277.62L232 274.83C232.2 274.71 232.19 274.52 232 274.39L226.42 271.17C226.301 271.109 226.169 271.077 226.035 271.077C225.901 271.077 225.769 271.109 225.65 271.17L220.83 273.96C220.62 274.08 220.63 274.27 220.83 274.4L226.41 277.62C226.521 277.672 226.642 277.699 226.765 277.699C226.888 277.699 227.009 277.672 227.12 277.62H227.17ZM220.12 281.69L224.95 278.9C225.15 278.79 225.14 278.59 224.95 278.46L219.37 275.24C219.251 275.179 219.119 275.147 218.985 275.147C218.851 275.147 218.719 275.179 218.6 275.24L213.7 278C213.49 278.12 213.5 278.32 213.7 278.44L219.28 281.66C219.399 281.73 219.534 281.769 219.671 281.774C219.809 281.779 219.946 281.75 220.07 281.69H220.12ZM213.12 285.76L217.95 282.97C218.15 282.86 218.14 282.66 217.95 282.53L212.37 279.31C212.25 279.251 212.119 279.22 211.985 279.22C211.852 279.22 211.72 279.251 211.6 279.31L206.77 282.1C206.57 282.22 206.58 282.42 206.77 282.54L212.35 285.76C212.453 285.803 212.564 285.826 212.675 285.826C212.787 285.826 212.897 285.803 213 285.76H213.12ZM247.83 256.52L252.65 253.73C252.86 253.61 252.85 253.42 252.65 253.29L247 250.07C246.881 250.009 246.749 249.977 246.615 249.977C246.481 249.977 246.349 250.009 246.23 250.07L241.4 252.86C241.2 252.98 241.21 253.17 241.4 253.3L247 256.5C247.112 256.558 247.236 256.59 247.363 256.594C247.489 256.597 247.615 256.572 247.73 256.52H247.83ZM241.33 269.52L252 263.26C252.2 263.14 252.19 262.94 252 262.82L238.41 255C238.291 254.939 238.159 254.907 238.025 254.907C237.891 254.907 237.759 254.939 237.64 255L232.08 258.21C231.87 258.33 231.88 258.53 232.08 258.66L239.26 262.8C239.48 262.93 239.49 263.13 239.26 263.24L234.81 265.81C234.6 265.93 234.62 266.13 234.81 266.26L240.39 269.48C240.519 269.551 240.663 269.588 240.81 269.588C240.957 269.588 241.101 269.551 241.23 269.48L241.33 269.52ZM205.33 264.52L200.5 267.31C200.3 267.42 200.31 267.62 200.5 267.75L206 271C206.12 271.059 206.252 271.09 206.385 271.09C206.519 271.09 206.65 271.059 206.77 271L211.59 268.21C211.8 268.09 211.79 267.89 211.59 267.77L206 264.54C205.877 264.467 205.736 264.427 205.593 264.423C205.449 264.42 205.307 264.453 205.18 264.52H205.33ZM198.28 268.59L193.45 271.38C193.25 271.5 193.26 271.69 193.45 271.82L199.03 275.04C199.149 275.102 199.281 275.134 199.415 275.134C199.549 275.134 199.681 275.102 199.8 275.04L204.62 272.25C204.83 272.13 204.82 271.93 204.62 271.81L199.04 268.59C198.904 268.503 198.746 268.456 198.585 268.456C198.424 268.456 198.266 268.503 198.13 268.59H198.28ZM163.04 314.24C163.159 314.302 163.291 314.334 163.425 314.334C163.559 314.334 163.691 314.302 163.81 314.24L168.64 311.45C168.84 311.33 168.83 311.13 168.64 311.01L163.06 307.79C162.941 307.729 162.809 307.697 162.675 307.697C162.541 307.697 162.409 307.729 162.29 307.79L157.47 310.58C157.26 310.69 157.27 310.89 157.47 311.02L163.04 314.24ZM141.87 301.16L136.89 304C136.69 304.11 136.7 304.31 136.89 304.44L142.47 307.66C142.59 307.719 142.722 307.75 142.855 307.75C142.989 307.75 143.12 307.719 143.24 307.66L148.06 304.87C148.27 304.75 148.26 304.55 148.06 304.43L142.48 301.21C142.366 301.143 142.238 301.103 142.106 301.094C141.974 301.085 141.842 301.108 141.72 301.16H141.87ZM153.22 310.71C153.339 310.772 153.471 310.804 153.605 310.804C153.739 310.804 153.871 310.772 153.99 310.71L158.81 307.92C159.02 307.8 159 307.6 158.81 307.48L153.23 304.26C153.111 304.199 152.979 304.167 152.845 304.167C152.711 304.167 152.579 304.199 152.46 304.26L147.64 307.05C147.44 307.17 147.45 307.36 147.64 307.49L153.22 310.71ZM175.49 316.71L180.32 313.92C180.52 313.8 180.51 313.6 180.32 313.48L174.74 310.26C174.621 310.199 174.489 310.167 174.355 310.167C174.221 310.167 174.089 310.199 173.97 310.26L169 313C168.79 313.11 168.8 313.31 169 313.44L174.58 316.66C174.694 316.727 174.822 316.768 174.953 316.778C175.085 316.788 175.217 316.769 175.34 316.72L175.49 316.71ZM167.67 320.71C167.789 320.772 167.921 320.804 168.055 320.804C168.189 320.804 168.321 320.772 168.44 320.71L173.27 317.92C173.47 317.8 173.46 317.6 173.27 317.48L167.69 314.26C167.571 314.199 167.439 314.167 167.305 314.167C167.171 314.167 167.039 314.199 166.92 314.26L162.09 317.05C161.89 317.16 161.9 317.36 162.09 317.49L167.67 320.71ZM148.92 297.03L144.09 299.81C143.89 299.93 143.9 300.13 144.09 300.26L149.67 303.48C149.79 303.539 149.922 303.57 150.055 303.57C150.189 303.57 150.32 303.539 150.44 303.48L155.26 300.69C155.47 300.57 155.46 300.37 155.26 300.25L149.68 297.02C149.537 296.947 149.376 296.914 149.215 296.926C149.055 296.939 148.9 296.995 148.77 297.09L148.92 297.03ZM184 276.73L179.17 279.52C178.97 279.64 178.98 279.84 179.17 279.96L184.75 283.18C184.869 283.242 185.001 283.274 185.135 283.274C185.269 283.274 185.401 283.242 185.52 283.18L190.34 280.39C190.55 280.28 190.53 280.08 190.34 279.95L184.76 276.73C184.642 276.671 184.512 276.641 184.38 276.641C184.248 276.641 184.118 276.671 184 276.73ZM155.82 293L151 295.8C150.79 295.92 150.8 296.12 151 296.25L156.58 299.47C156.699 299.532 156.831 299.564 156.965 299.564C157.099 299.564 157.231 299.532 157.35 299.47L162.18 296.69C162.38 296.57 162.37 296.37 162.18 296.24L156.59 293C156.47 292.941 156.339 292.91 156.205 292.91C156.072 292.91 155.94 292.941 155.82 293ZM191.08 272.64L186.25 275.43C186.05 275.55 186.06 275.75 186.25 275.87L191.83 279.09C191.949 279.152 192.081 279.184 192.215 279.184C192.349 279.184 192.481 279.152 192.6 279.09L197.42 276.3C197.63 276.18 197.61 275.99 197.42 275.86L191.84 272.64C191.721 272.584 191.59 272.556 191.458 272.559C191.326 272.563 191.196 272.597 191.08 272.66V272.64ZM177 280.8L172.18 283.59C171.97 283.71 171.99 283.91 172.18 284.03L177.76 287.25C177.879 287.312 178.011 287.344 178.145 287.344C178.279 287.344 178.411 287.312 178.53 287.25L183.35 284.47C183.55 284.35 183.54 284.15 183.35 284.02L177.77 280.8C177.65 280.741 177.519 280.71 177.385 280.71C177.252 280.71 177.12 280.741 177 280.8ZM169.95 284.88L165.13 287.66C164.92 287.78 164.94 287.98 165.13 288.1L170.7 291.33C170.82 291.389 170.952 291.42 171.085 291.42C171.219 291.42 171.35 291.389 171.47 291.33L176.3 288.55C176.5 288.43 176.49 288.23 176.3 288.1L170.72 284.88C170.597 284.814 170.46 284.779 170.32 284.779C170.18 284.779 170.043 284.814 169.92 284.88H169.95ZM162.95 288.95L158.13 291.73C157.92 291.85 157.93 292.05 158.13 292.18L163.71 295.4C163.83 295.459 163.962 295.49 164.095 295.49C164.229 295.49 164.36 295.459 164.48 295.4L169.31 292.62C169.51 292.5 169.5 292.3 169.31 292.17L163.64 289C163.52 288.941 163.389 288.91 163.255 288.91C163.122 288.91 162.99 288.941 162.87 289L162.95 288.95ZM198.95 293.9L203.77 291.12C203.98 291 203.96 290.8 203.77 290.67L198.19 287.45C198.071 287.389 197.939 287.357 197.805 287.357C197.671 287.357 197.539 287.389 197.42 287.45L192.59 290.23C192.39 290.35 192.4 290.55 192.59 290.68L198.17 293.9C198.287 293.956 198.415 293.985 198.545 293.985C198.675 293.985 198.803 293.956 198.92 293.9H198.95ZM260.88 232.38L256 235.17C255.8 235.28 255.81 235.48 256 235.61L261.58 238.83C261.7 238.889 261.832 238.92 261.965 238.92C262.099 238.92 262.23 238.889 262.35 238.83L267.17 236.04C267.38 235.92 267.37 235.72 267.17 235.6L261.59 232.38C261.475 232.324 261.348 232.294 261.22 232.294C261.092 232.294 260.965 232.324 260.85 232.38H260.88ZM252.34 237.31L247.52 240.09C247.31 240.21 247.32 240.41 247.52 240.54L253.1 243.76C253.219 243.822 253.351 243.854 253.485 243.854C253.619 243.854 253.751 243.822 253.87 243.76L258.7 240.98C258.9 240.86 258.89 240.66 258.7 240.53L253.12 237.31C252.995 237.245 252.856 237.21 252.715 237.21C252.574 237.21 252.435 237.245 252.31 237.31H252.34ZM267.93 228.31L263.1 231.09C262.9 231.21 262.91 231.41 263.1 231.54L268.68 234.76C268.8 234.819 268.932 234.85 269.065 234.85C269.199 234.85 269.33 234.819 269.45 234.76L274.27 231.97C274.48 231.85 274.47 231.65 274.27 231.53L268.69 228.3C268.567 228.239 268.431 228.209 268.294 228.21C268.157 228.212 268.022 228.246 267.9 228.31H267.93ZM231.4 266L236.23 263.21C236.43 263.09 236.42 262.89 236.23 262.77L230.65 259.54C230.53 259.481 230.399 259.45 230.265 259.45C230.132 259.45 230 259.481 229.88 259.54L225 262.26C224.8 262.38 224.81 262.58 225 262.71L230.58 265.93C230.7 266.009 230.838 266.056 230.981 266.068C231.124 266.081 231.268 266.057 231.4 266ZM275.72 224.3C275.6 224.241 275.469 224.21 275.335 224.21C275.202 224.21 275.07 224.241 274.95 224.3L270.13 227C269.92 227.12 269.93 227.32 270.13 227.45L275.71 230.67C275.829 230.732 275.961 230.764 276.095 230.764C276.229 230.764 276.361 230.732 276.48 230.67L281.31 227.89C281.51 227.77 281.5 227.57 281.31 227.44L275.72 224.3ZM206 289.83L210.82 287.05C211.03 286.93 211.02 286.73 210.82 286.6L205.24 283.38C205.12 283.321 204.989 283.29 204.855 283.29C204.722 283.29 204.59 283.321 204.47 283.38L199.64 286.17C199.44 286.29 199.45 286.49 199.64 286.61L205.22 289.84C205.342 289.899 205.476 289.929 205.611 289.928C205.747 289.926 205.88 289.893 206 289.83ZM292.47 239.91L297.29 237.12C297.5 237 297.49 236.8 297.29 236.68L291.71 233.46C291.591 233.399 291.459 233.367 291.325 233.367C291.191 233.367 291.059 233.399 290.94 233.46L286.11 236.25C285.91 236.36 285.92 236.56 286.11 236.69L291.69 239.91C291.807 239.968 291.935 239.999 292.065 239.999C292.195 239.999 292.324 239.968 292.44 239.91H292.47ZM277.47 239.38L282.29 236.59C282.5 236.47 282.49 236.27 282.29 236.15L276.71 232.93C276.591 232.869 276.459 232.837 276.325 232.837C276.191 232.837 276.059 232.869 275.94 232.93L271 235.7C270.8 235.81 270.81 236.01 271 236.14L276.58 239.36C276.706 239.437 276.85 239.479 276.997 239.483C277.145 239.486 277.291 239.451 277.42 239.38H277.47ZM283.74 228.85C283.62 228.791 283.489 228.76 283.355 228.76C283.222 228.76 283.09 228.791 282.97 228.85L278.14 231.63C277.94 231.75 277.95 231.95 278.14 232.08L283.72 235.3C283.84 235.359 283.972 235.39 284.105 235.39C284.239 235.39 284.37 235.359 284.49 235.3L289.32 232.51C289.52 232.39 289.51 232.19 289.32 232.07L283.74 228.85ZM285.22 228L298.77 235.82C298.89 235.879 299.022 235.91 299.155 235.91C299.289 235.91 299.42 235.879 299.54 235.82L304.37 233.03C304.57 232.91 304.56 232.71 304.37 232.59L290.82 224.76C290.7 224.701 290.569 224.67 290.435 224.67C290.302 224.67 290.17 224.701 290.05 224.76L285.23 227.54C284.94 227.67 285 227.87 285.17 228H285.22ZM268.87 237L264 239.77C263.8 239.89 263.81 240.08 264 240.21L269.58 243.43C269.699 243.492 269.831 243.524 269.965 243.524C270.099 243.524 270.231 243.492 270.35 243.43L275.17 240.64C275.38 240.52 275.37 240.33 275.17 240.2L269.59 237C269.471 236.939 269.339 236.907 269.205 236.907C269.071 236.907 268.939 236.939 268.82 237H268.87ZM215.8 267.64L210.97 270.43C210.77 270.55 210.78 270.74 210.97 270.87L216.55 274.09C216.669 274.152 216.801 274.184 216.935 274.184C217.069 274.184 217.201 274.152 217.32 274.09L222.14 271.3C222.35 271.18 222.33 270.99 222.14 270.86L216.57 267.64C216.447 267.567 216.306 267.527 216.163 267.523C216.019 267.52 215.877 267.553 215.75 267.62L215.8 267.64ZM284.62 244C284.739 244.062 284.871 244.094 285.005 244.094C285.139 244.094 285.271 244.062 285.39 244L290.21 241.21C290.42 241.09 290.41 240.9 290.21 240.77L284.63 237.55C284.511 237.489 284.379 237.457 284.245 237.457C284.111 237.457 283.979 237.489 283.86 237.55L279 240.3C278.8 240.42 278.81 240.61 279 240.74L284.62 244ZM222.8 263.55L218 266.34C217.8 266.45 217.81 266.65 218 266.78L223.58 270C223.699 270.062 223.831 270.094 223.965 270.094C224.099 270.094 224.231 270.062 224.35 270L229.17 267.21C229.38 267.09 229.37 266.89 229.17 266.77L223.59 263.55C223.469 263.485 223.333 263.452 223.195 263.452C223.057 263.452 222.922 263.485 222.8 263.55ZM169.94 310.17C170.06 310.229 170.192 310.26 170.325 310.26C170.459 310.26 170.59 310.229 170.71 310.17L175.54 307.38C175.74 307.26 175.73 307.06 175.54 306.94L169.96 303.72C169.841 303.659 169.709 303.627 169.575 303.627C169.441 303.627 169.309 303.659 169.19 303.72L164.37 306.51C164.16 306.62 164.17 306.82 164.37 306.95L169.94 310.17ZM159.34 300.17L154.51 303C154.31 303.11 154.32 303.31 154.51 303.44L160.09 306.66C160.21 306.719 160.342 306.75 160.475 306.75C160.609 306.75 160.74 306.719 160.86 306.66L165.68 303.87C165.89 303.75 165.87 303.55 165.68 303.43L160.11 300.21C159.993 300.146 159.861 300.11 159.728 300.107C159.594 300.103 159.461 300.132 159.34 300.19V300.17ZM177.76 306.1L182.59 303.31C182.79 303.19 182.78 302.99 182.59 302.87L177 299.66C176.88 299.601 176.749 299.57 176.615 299.57C176.482 299.57 176.35 299.601 176.23 299.66L171.41 302.44C171.2 302.56 171.22 302.76 171.41 302.89L177 306.1C177.117 306.161 177.246 306.194 177.378 306.198C177.509 306.201 177.64 306.175 177.76 306.12V306.1ZM184.82 302.02L189.64 299.24C189.84 299.12 189.83 298.92 189.64 298.79L184 295.59C183.88 295.531 183.749 295.5 183.615 295.5C183.482 295.5 183.35 295.531 183.23 295.59L178.41 298.37C178.2 298.49 178.22 298.69 178.41 298.82L183.99 302.04C184.12 302.106 184.265 302.137 184.41 302.13C184.556 302.123 184.697 302.078 184.82 302V302.02ZM191.87 297.95L196.69 295.17C196.9 295.05 196.88 294.85 196.69 294.72L191.11 291.5C190.992 291.441 190.862 291.411 190.73 291.411C190.598 291.411 190.468 291.441 190.35 291.5L185.52 294.28C185.32 294.4 185.33 294.6 185.52 294.73L191.1 298C191.22 298.059 191.352 298.09 191.485 298.09C191.619 298.09 191.75 298.059 191.87 298V297.95ZM166.39 296.1L161.56 298.88C161.36 299 161.37 299.2 161.56 299.33L167.14 302.55C167.26 302.609 167.392 302.64 167.525 302.64C167.659 302.64 167.79 302.609 167.91 302.55L172.73 299.76C172.94 299.64 172.93 299.44 172.73 299.32L167.15 296.09C167.029 296.037 166.898 296.013 166.767 296.018C166.635 296.023 166.506 296.058 166.39 296.12V296.1ZM173.44 292.03L168.61 294.81C168.41 294.93 168.42 295.13 168.61 295.26L174.19 298.48C174.309 298.542 174.441 298.574 174.575 298.574C174.709 298.574 174.841 298.542 174.96 298.48L179.78 295.7C179.99 295.58 179.98 295.38 179.78 295.25L174.2 292.03C174.08 291.976 173.949 291.949 173.818 291.953C173.686 291.956 173.557 291.99 173.44 292.05V292.03ZM201.64 275.74L196.82 278.53C196.61 278.65 196.63 278.85 196.82 278.97L202.4 282.19C202.517 282.252 202.648 282.284 202.78 282.284C202.912 282.284 203.043 282.252 203.16 282.19L207.99 279.4C208.19 279.29 208.18 279.09 207.99 278.96L202.41 275.74C202.289 275.684 202.156 275.657 202.023 275.66C201.889 275.664 201.758 275.698 201.64 275.76V275.74ZM194.64 279.81L189.82 282.6C189.61 282.72 189.63 282.92 189.82 283.04L195.39 286.27C195.51 286.329 195.642 286.36 195.775 286.36C195.909 286.36 196.04 286.329 196.16 286.27L200.99 283.49C201.19 283.37 201.18 283.17 200.99 283.04L195.41 279.82C195.283 279.754 195.142 279.721 194.999 279.723C194.856 279.724 194.715 279.761 194.59 279.83L194.64 279.81ZM208.75 271.67L203.92 274.46C203.72 274.58 203.73 274.78 203.92 274.9L209.5 278.12C209.619 278.182 209.751 278.214 209.885 278.214C210.019 278.214 210.151 278.182 210.27 278.12L215.09 275.33C215.3 275.22 215.28 275.02 215.09 274.89L209.51 271.67C209.385 271.603 209.244 271.57 209.102 271.573C208.96 271.577 208.822 271.617 208.7 271.69L208.75 271.67ZM180.49 288L175.67 290.78C175.46 290.9 175.47 291.1 175.67 291.23L181.25 294.45C181.37 294.509 181.502 294.54 181.635 294.54C181.769 294.54 181.9 294.509 182.02 294.45L186.85 291.67C187.05 291.55 187.04 291.35 186.85 291.22L181.26 288C181.14 287.941 181.009 287.91 180.875 287.91C180.742 287.91 180.61 287.941 180.49 288ZM187.49 283.93L182.67 286.71C182.46 286.83 182.47 287.03 182.67 287.16L188.25 290.38C188.37 290.439 188.502 290.47 188.635 290.47C188.769 290.47 188.9 290.439 189.02 290.38L193.85 287.6C194.05 287.48 194.04 287.28 193.85 287.15L188.27 283.93C188.158 283.872 188.034 283.84 187.907 283.837C187.781 283.833 187.655 283.858 187.54 283.91L187.49 283.93ZM182.34 312.67L187.17 309.88C187.37 309.76 187.36 309.56 187.17 309.44L181.59 306.21C181.47 306.151 181.339 306.12 181.205 306.12C181.072 306.12 180.94 306.151 180.82 306.21L176 309C175.79 309.12 175.8 309.32 176 309.45L181.57 312.67C181.698 312.735 181.84 312.766 181.983 312.763C182.126 312.759 182.266 312.721 182.39 312.65L182.34 312.67ZM141 308.47L135.43 305.25C135.311 305.189 135.179 305.157 135.045 305.157C134.911 305.157 134.779 305.189 134.66 305.25L129.84 308C129.64 308.11 129.65 308.31 129.84 308.44L135.42 311.66C135.539 311.722 135.671 311.754 135.805 311.754C135.939 311.754 136.071 311.722 136.19 311.66L141.01 308.87C141.25 308.79 141.23 308.59 141 308.47ZM151.57 311.57L146 308.35C145.881 308.289 145.749 308.257 145.615 308.257C145.481 308.257 145.349 308.289 145.23 308.35L137.81 312.64C137.61 312.76 137.62 312.95 137.81 313.08L143.39 316.3C143.509 316.362 143.641 316.394 143.775 316.394C143.909 316.394 144.041 316.362 144.16 316.3L151.58 312.01C151.81 311.89 151.8 311.7 151.58 311.57H151.57ZM132.45 302.24L126.88 299C126.76 298.941 126.629 298.91 126.495 298.91C126.362 298.91 126.23 298.941 126.11 299L120.17 302.43C119.96 302.55 119.98 302.75 120.17 302.88L125.74 306.1C125.86 306.159 125.992 306.19 126.125 306.19C126.259 306.19 126.39 306.159 126.51 306.1L132.45 302.67C132.69 302.57 132.68 302.37 132.46 302.24H132.45ZM137 299.61C137.119 299.672 137.251 299.704 137.385 299.704C137.519 299.704 137.651 299.672 137.77 299.61L142.59 296.82C142.8 296.7 142.78 296.51 142.59 296.38L137 293.18C136.881 293.119 136.749 293.087 136.615 293.087C136.481 293.087 136.349 293.119 136.23 293.18L131.4 296C131.2 296.12 131.21 296.31 131.4 296.44L137 299.61ZM161.4 315.1L155.82 311.88C155.701 311.819 155.569 311.787 155.435 311.787C155.301 311.787 155.169 311.819 155.05 311.88L145.77 317.24C145.57 317.36 145.58 317.56 145.77 317.68L151.35 320.9C151.469 320.962 151.601 320.994 151.735 320.994C151.869 320.994 152.001 320.962 152.12 320.9L161.39 315.54C161.64 315.42 161.63 315.23 161.41 315.1H161.4ZM166.03 321.63L160.45 318.41C160.331 318.349 160.199 318.317 160.065 318.317C159.931 318.317 159.799 318.349 159.68 318.41L153.74 321.84C153.54 321.96 153.55 322.16 153.74 322.28L159.32 325.51C159.44 325.569 159.572 325.6 159.705 325.6C159.839 325.6 159.97 325.569 160.09 325.51L166.02 322.08C166.27 322 166.26 321.76 166 321.63H166.03ZM189.42 269.34C189.539 269.402 189.671 269.434 189.805 269.434C189.939 269.434 190.071 269.402 190.19 269.34L195.02 266.55C195.22 266.44 195.21 266.24 195.02 266.11L189.44 262.89C189.321 262.829 189.189 262.797 189.055 262.797C188.921 262.797 188.789 262.829 188.67 262.89L183.85 265.68C183.64 265.8 183.66 266 183.85 266.12L189.42 269.34ZM175.32 277.49C175.44 277.549 175.572 277.58 175.705 277.58C175.839 277.58 175.97 277.549 176.09 277.49L180.92 274.71C181.12 274.59 181.11 274.39 180.92 274.26L175.34 271.04C175.22 270.981 175.089 270.95 174.955 270.95C174.822 270.95 174.69 270.981 174.57 271.04L169.75 273.83C169.54 273.95 169.55 274.15 169.75 274.27L175.32 277.49ZM144.05 295.54C144.169 295.602 144.301 295.634 144.435 295.634C144.569 295.634 144.701 295.602 144.82 295.54L149.64 292.75C149.85 292.63 149.84 292.43 149.64 292.31L144.06 289.09C143.941 289.029 143.809 288.997 143.675 288.997C143.541 288.997 143.409 289.029 143.29 289.09L138.46 291.88C138.26 291.99 138.27 292.19 138.46 292.32L144.05 295.54ZM182.37 273.41C182.489 273.472 182.621 273.504 182.755 273.504C182.889 273.504 183.021 273.472 183.14 273.41L187.97 270.62C188.17 270.51 188.16 270.31 187.97 270.18L182.37 267C182.25 266.941 182.119 266.91 181.985 266.91C181.852 266.91 181.72 266.941 181.6 267L176.78 269.79C176.57 269.91 176.58 270.11 176.78 270.23L182.37 273.41ZM168.27 281.56C168.39 281.619 168.522 281.65 168.655 281.65C168.789 281.65 168.92 281.619 169.04 281.56L173.87 278.78C174.07 278.66 174.06 278.46 173.87 278.33L168.29 275.11C168.171 275.049 168.039 275.017 167.905 275.017C167.771 275.017 167.639 275.049 167.52 275.11L162.69 277.89C162.49 278.01 162.5 278.21 162.69 278.34L168.27 281.56ZM169.9 322.15C169.781 322.089 169.649 322.057 169.515 322.057C169.381 322.057 169.249 322.089 169.13 322.15L161.71 326.43C161.51 326.55 161.52 326.75 161.71 326.88L167.29 330.1C167.41 330.159 167.542 330.19 167.675 330.19C167.809 330.19 167.94 330.159 168.06 330.1L175.48 325.82C175.68 325.7 175.67 325.5 175.48 325.37L169.9 322.15ZM158.16 287.4C158.279 287.462 158.411 287.494 158.545 287.494C158.679 287.494 158.811 287.462 158.93 287.4L163.76 284.62C163.96 284.5 163.95 284.3 163.76 284.17L158.15 281C158.03 280.941 157.899 280.91 157.765 280.91C157.632 280.91 157.5 280.941 157.38 281L152.56 283.78C152.35 283.9 152.36 284.1 152.56 284.23L158.16 287.4ZM151.16 291.47C151.28 291.529 151.412 291.56 151.545 291.56C151.679 291.56 151.81 291.529 151.93 291.47L156.75 288.68C156.96 288.56 156.95 288.36 156.75 288.24L151.1 285C150.981 284.939 150.849 284.907 150.715 284.907C150.581 284.907 150.449 284.939 150.33 285L145.5 287.78C145.3 287.9 145.31 288.1 145.5 288.23L151.16 291.47ZM300.6 246.73C300.48 246.671 300.349 246.64 300.215 246.64C300.082 246.64 299.95 246.671 299.83 246.73L287.95 253.59C287.75 253.71 287.76 253.91 287.95 254.04L293.53 257.26C293.65 257.319 293.782 257.35 293.915 257.35C294.049 257.35 294.18 257.319 294.3 257.26L306.17 250.4C306.38 250.29 306.37 250.09 306.17 249.96L300.6 246.73ZM285.01 255.73C284.891 255.669 284.759 255.637 284.625 255.637C284.491 255.637 284.359 255.669 284.24 255.73L279.42 258.52C279.21 258.64 279.22 258.84 279.42 258.96L285 262.18C285.119 262.242 285.251 262.274 285.385 262.274C285.519 262.274 285.651 262.242 285.77 262.18L290.6 259.39C290.8 259.28 290.79 259.08 290.6 258.95L285.01 255.73ZM189.49 308.57L194.32 305.79C194.52 305.67 194.51 305.47 194.32 305.34L188.74 302.12C188.62 302.061 188.489 302.03 188.355 302.03C188.222 302.03 188.09 302.061 187.97 302.12L183.15 304.9C182.94 305.02 182.96 305.22 183.15 305.35L188.73 308.57C188.841 308.623 188.962 308.651 189.085 308.651C189.208 308.651 189.329 308.623 189.44 308.57H189.49ZM270.91 263.87C270.791 263.809 270.659 263.777 270.525 263.777C270.391 263.777 270.259 263.809 270.14 263.87L265.31 266.65C265.11 266.77 265.12 266.97 265.31 267.1L270.89 270.32C271.01 270.379 271.142 270.41 271.275 270.41C271.409 270.41 271.54 270.379 271.66 270.32L276.48 267.54C276.69 267.42 276.68 267.22 276.48 267.09L270.91 263.87ZM307.65 242.66C307.531 242.599 307.399 242.567 307.265 242.567C307.131 242.567 306.999 242.599 306.88 242.66L302 245.43C301.8 245.55 301.81 245.75 302 245.87L307.58 249.09C307.699 249.152 307.831 249.184 307.965 249.184C308.099 249.184 308.231 249.152 308.35 249.09L313.17 246.3C313.38 246.19 313.37 245.99 313.17 245.86L307.65 242.66ZM320.28 241.81L306.68 234C306.561 233.939 306.429 233.907 306.295 233.907C306.161 233.907 306.029 233.939 305.91 234L301.09 236.79C300.88 236.9 300.89 237.1 301.09 237.23L314.66 245C314.779 245.062 314.911 245.094 315.045 245.094C315.179 245.094 315.311 245.062 315.43 245L320.26 242.21C320.46 242.13 320.45 241.94 320.23 241.81H320.28ZM244.56 279.08C244.44 279.021 244.309 278.99 244.175 278.99C244.042 278.99 243.91 279.021 243.79 279.08L237.85 282.51C237.64 282.62 237.66 282.82 237.85 282.95L243.43 286.17C243.549 286.232 243.681 286.264 243.815 286.264C243.949 286.264 244.081 286.232 244.2 286.17L250.13 282.74C250.34 282.62 250.33 282.42 250.13 282.3L244.56 279.08ZM262.37 268.8C262.25 268.741 262.119 268.71 261.985 268.71C261.852 268.71 261.72 268.741 261.6 268.8L254.18 273.09C253.97 273.21 253.99 273.41 254.18 273.53L259.76 276.75C259.879 276.812 260.011 276.844 260.145 276.844C260.279 276.844 260.411 276.812 260.53 276.75L267.95 272.46C268.15 272.35 268.14 272.15 267.95 272.02L262.37 268.8ZM228.23 288.51C228.111 288.449 227.979 288.417 227.845 288.417C227.711 288.417 227.579 288.449 227.46 288.51L187.7 311.42C187.49 311.54 187.51 311.74 187.7 311.87L193.27 315.09C193.39 315.149 193.522 315.18 193.655 315.18C193.789 315.18 193.92 315.149 194.04 315.09L233.75 292.17C233.96 292.05 233.95 291.85 233.75 291.72L228.23 288.51ZM186.29 312.72C186.17 312.661 186.039 312.63 185.905 312.63C185.772 312.63 185.64 312.661 185.52 312.72L179.58 316.15C179.38 316.26 179.39 316.46 179.58 316.59L185.16 319.81C185.279 319.872 185.411 319.904 185.545 319.904C185.679 319.904 185.811 319.872 185.93 319.81L191.87 316.38C192.07 316.26 192.06 316.06 191.87 315.94L186.29 312.72ZM236.39 283.8C236.271 283.739 236.139 283.707 236.005 283.707C235.871 283.707 235.739 283.739 235.62 283.8L229.69 287.23C229.48 287.35 229.49 287.55 229.69 287.67L235.27 290.9C235.39 290.959 235.522 290.99 235.655 290.99C235.789 290.99 235.92 290.959 236.04 290.9L241.98 287.47C242.18 287.35 242.17 287.16 241.98 287.03L236.39 283.8ZM178.13 317.44C178.011 317.379 177.879 317.347 177.745 317.347C177.611 317.347 177.479 317.379 177.36 317.44L171.42 320.87C171.21 320.99 171.23 321.19 171.42 321.31L177 324.54C177.118 324.599 177.248 324.63 177.38 324.63C177.512 324.63 177.642 324.599 177.76 324.54L183.7 321.11C183.91 320.99 183.9 320.8 183.7 320.67L178.13 317.44ZM252.72 274.37C252.6 274.311 252.469 274.28 252.335 274.28C252.202 274.28 252.07 274.311 251.95 274.37L246 277.78C245.8 277.9 245.81 278.1 246 278.23L251.58 281.45C251.699 281.512 251.831 281.544 251.965 281.544C252.099 281.544 252.231 281.512 252.35 281.45L258.29 278.03C258.49 277.91 258.48 277.71 258.29 277.58L252.72 274.37ZM277.96 259.8C277.84 259.741 277.709 259.71 277.575 259.71C277.442 259.71 277.31 259.741 277.19 259.8L272.36 262.59C272.16 262.71 272.17 262.91 272.36 263.03L277.94 266.26C278.06 266.319 278.192 266.35 278.325 266.35C278.459 266.35 278.59 266.319 278.71 266.26L283.53 263.48C283.74 263.36 283.73 263.16 283.53 263.03L277.96 259.8ZM293.41 248.58L298.23 245.79C298.44 245.68 298.43 245.48 298.23 245.35L292.65 242.13C292.531 242.069 292.399 242.037 292.265 242.037C292.131 242.037 291.999 242.069 291.88 242.13L287 244.9C286.8 245.02 286.81 245.22 287 245.34L292.58 248.56C292.699 248.626 292.832 248.663 292.968 248.666C293.104 248.67 293.238 248.64 293.36 248.58H293.41ZM261.88 248.38L266.71 245.59C266.91 245.47 266.9 245.27 266.71 245.15L261.13 241.93C261.011 241.869 260.879 241.837 260.745 241.837C260.611 241.837 260.479 241.869 260.36 241.93L255.54 244.71C255.33 244.83 255.34 245.03 255.54 245.16L261.12 248.38C261.232 248.43 261.353 248.456 261.475 248.456C261.597 248.456 261.718 248.43 261.83 248.38H261.88ZM245.88 276.01L259.98 267.86C260.18 267.75 260.17 267.55 259.98 267.42L254.4 264.2C254.281 264.139 254.149 264.107 254.015 264.107C253.881 264.107 253.749 264.139 253.63 264.2L239.53 272.34C239.32 272.46 239.34 272.66 239.53 272.79L245.11 276.01C245.228 276.065 245.356 276.092 245.486 276.09C245.616 276.089 245.744 276.058 245.86 276L245.88 276.01ZM285.56 252.63C285.679 252.692 285.811 252.724 285.945 252.724C286.079 252.724 286.211 252.692 286.33 252.63L291.15 249.85C291.36 249.73 291.34 249.53 291.15 249.4L285.58 246.18C285.46 246.121 285.329 246.09 285.195 246.09C285.062 246.09 284.93 246.121 284.81 246.18L279.93 249C279.73 249.12 279.74 249.32 279.93 249.44L285.56 252.63ZM278.36 248.05L283.18 245.26C283.39 245.15 283.38 244.95 283.18 244.82L277.61 241.6C277.491 241.539 277.359 241.507 277.225 241.507C277.091 241.507 276.959 241.539 276.84 241.6L272 244.37C271.8 244.49 271.81 244.69 272 244.81L277.58 248.03C277.696 248.093 277.826 248.128 277.958 248.131C278.09 248.135 278.221 248.107 278.34 248.05H278.36ZM238.82 280.05L243.65 277.26C243.85 277.14 243.84 276.94 243.65 276.82L238 273.63C237.881 273.569 237.749 273.537 237.615 273.537C237.481 273.537 237.349 273.569 237.23 273.63L232.41 276.42C232.2 276.53 232.22 276.73 232.41 276.86L237.98 280.08C238.106 280.148 238.247 280.183 238.39 280.183C238.533 280.183 238.674 280.148 238.8 280.08L238.82 280.05ZM270 261.63C270.119 261.692 270.251 261.724 270.385 261.724C270.519 261.724 270.651 261.692 270.77 261.63L275.59 258.84C275.8 258.73 275.79 258.53 275.59 258.4L270.01 255.18C269.891 255.119 269.759 255.087 269.625 255.087C269.491 255.087 269.359 255.119 269.24 255.18L264.34 258C264.14 258.12 264.15 258.32 264.34 258.44L270 261.63ZM203.6 300.43L208.42 297.65C208.63 297.53 208.61 297.33 208.42 297.2L202.77 294C202.651 293.939 202.519 293.907 202.385 293.907C202.251 293.907 202.119 293.939 202 294L197.17 296.78C196.97 296.9 196.98 297.1 197.17 297.23L202.75 300.45C202.875 300.511 203.013 300.541 203.153 300.538C203.292 300.534 203.428 300.497 203.55 300.43H203.6ZM210.6 296.36L215.42 293.58C215.63 293.46 215.62 293.26 215.42 293.13L209.84 289.91C209.72 289.851 209.589 289.82 209.455 289.82C209.322 289.82 209.19 289.851 209.07 289.91L204.24 292.7C204.04 292.82 204.05 293.02 204.24 293.14L209.82 296.36C209.94 296.423 210.074 296.456 210.21 296.456C210.346 296.456 210.48 296.423 210.6 296.36ZM196.5 304.5L201.32 301.72C201.53 301.6 201.51 301.4 201.32 301.27L195.74 298.05C195.62 297.991 195.489 297.96 195.355 297.96C195.222 297.96 195.09 297.991 194.97 298.05L190.15 300.83C189.95 300.95 189.96 301.15 190.15 301.28L195.73 304.5C195.85 304.559 195.982 304.59 196.115 304.59C196.249 304.59 196.38 304.559 196.5 304.5ZM224.7 288.22L229.53 285.43C229.73 285.31 229.72 285.12 229.53 284.99L223.95 281.77C223.831 281.709 223.699 281.677 223.565 281.677C223.431 281.677 223.299 281.709 223.18 281.77L218.36 284.56C218.15 284.68 218.16 284.87 218.36 285L223.94 288.22C224.058 288.28 224.188 288.311 224.32 288.311C224.452 288.311 224.582 288.28 224.7 288.22ZM217.7 292.29L222.52 289.5C222.73 289.39 222.72 289.19 222.52 289.06L216.94 285.84C216.821 285.779 216.689 285.747 216.555 285.747C216.421 285.747 216.289 285.779 216.17 285.84L211.34 288.63C211.14 288.75 211.15 288.95 211.34 289.07L216.92 292.29C217.034 292.345 217.159 292.374 217.285 292.374C217.412 292.374 217.536 292.345 217.65 292.29H217.7ZM231.8 284.15L236.63 281.36C236.83 281.24 236.82 281.04 236.63 280.92L231 277.7C230.881 277.639 230.749 277.607 230.615 277.607C230.481 277.607 230.349 277.639 230.23 277.7L225.41 280.49C225.2 280.6 225.21 280.8 225.41 280.93L230.99 284.15C231.108 284.21 231.238 284.241 231.37 284.241C231.502 284.241 231.632 284.21 231.75 284.15H231.8ZM264 223.92C264.119 223.982 264.251 224.014 264.385 224.014C264.519 224.014 264.651 223.982 264.77 223.92L269.6 221.13C269.8 221.01 269.79 220.82 269.6 220.69L268.11 219.83C267.991 219.769 267.859 219.737 267.725 219.737C267.591 219.737 267.459 219.769 267.34 219.83L262.52 222.61C262.32 222.73 262.33 222.93 262.52 223.06L264 223.92ZM229.31 246.32C229.43 246.379 229.562 246.41 229.695 246.41C229.829 246.41 229.96 246.379 230.08 246.32L234.9 243.54C235.11 243.42 235.1 243.22 234.9 243.09L229.33 239.87C229.211 239.809 229.079 239.777 228.945 239.777C228.811 239.777 228.679 239.809 228.56 239.87L223.73 242.65C223.53 242.77 223.54 242.97 223.73 243.1L229.31 246.32ZM243.41 238.17C243.529 238.232 243.661 238.264 243.795 238.264C243.929 238.264 244.061 238.232 244.18 238.17L249 235.4C249.21 235.29 249.2 235.09 249 234.96L243.42 231.74C243.3 231.681 243.169 231.65 243.035 231.65C242.902 231.65 242.77 231.681 242.65 231.74L237.82 234.53C237.62 234.65 237.63 234.85 237.82 234.97L243.41 238.17ZM220.7 251.29C220.82 251.349 220.952 251.38 221.085 251.38C221.219 251.38 221.35 251.349 221.47 251.29L226.29 248.51C226.5 248.39 226.48 248.19 226.29 248.06L220.72 244.84C220.6 244.781 220.469 244.75 220.335 244.75C220.202 244.75 220.07 244.781 219.95 244.84L215.12 247.62C214.92 247.74 214.93 247.94 215.12 248.07L220.7 251.29ZM236.36 242.29C236.48 242.349 236.612 242.38 236.745 242.38C236.879 242.38 237.01 242.349 237.13 242.29L241.95 239.51C242.16 239.39 242.15 239.19 241.95 239.06L236.37 235.84C236.25 235.781 236.119 235.75 235.985 235.75C235.852 235.75 235.72 235.781 235.6 235.84L230.77 238.63C230.57 238.75 230.58 238.95 230.77 239.07L236.36 242.29ZM206.6 259.47C206.718 259.529 206.848 259.56 206.98 259.56C207.112 259.56 207.242 259.529 207.36 259.47L212.19 256.68C212.39 256.56 212.38 256.36 212.19 256.24L206.59 253C206.47 252.941 206.339 252.91 206.205 252.91C206.072 252.91 205.94 252.941 205.82 253L201 255.76C200.79 255.88 200.81 256.08 201 256.21L206.6 259.47ZM213.6 255.4C213.719 255.462 213.851 255.494 213.985 255.494C214.119 255.494 214.251 255.462 214.37 255.4L219.19 252.62C219.4 252.5 219.38 252.3 219.19 252.17L213.61 248.95C213.492 248.891 213.362 248.861 213.23 248.861C213.098 248.861 212.968 248.891 212.85 248.95L208.02 251.73C207.82 251.85 207.83 252.05 208.02 252.18L213.6 255.4ZM249.85 232.1C249.969 232.162 250.101 232.194 250.235 232.194C250.369 232.194 250.501 232.162 250.62 232.1L255.44 229.31C255.65 229.2 255.64 229 255.44 228.87L254 228C253.88 227.941 253.749 227.91 253.615 227.91C253.482 227.91 253.35 227.941 253.23 228L248.41 230.78C248.2 230.9 248.21 231.1 248.41 231.23L249.85 232.1ZM271 219.89C271.119 219.952 271.251 219.984 271.385 219.984C271.519 219.984 271.651 219.952 271.77 219.89L276.6 217.1C276.8 216.98 276.79 216.78 276.6 216.66L275.12 215.8C275 215.741 274.869 215.71 274.735 215.71C274.602 215.71 274.47 215.741 274.35 215.8L269.52 218.59C269.32 218.71 269.33 218.91 269.52 219.03L271 219.89ZM282.72 226.66C282.84 226.719 282.972 226.75 283.105 226.75C283.239 226.75 283.37 226.719 283.49 226.66L288.32 223.88C288.52 223.76 288.51 223.56 288.32 223.43L282.74 220.21C282.62 220.151 282.489 220.12 282.355 220.12C282.222 220.12 282.09 220.151 281.97 220.21L277.18 223C276.97 223.12 276.98 223.32 277.18 223.45L282.72 226.66ZM300.35 244.55L305.17 241.76C305.38 241.64 305.37 241.45 305.17 241.32L299.59 238.1C299.471 238.039 299.339 238.007 299.205 238.007C299.071 238.007 298.939 238.039 298.82 238.1L294 240.83C293.8 240.95 293.81 241.14 294 241.27L299.58 244.49C299.705 244.565 299.847 244.606 299.992 244.61C300.138 244.613 300.282 244.579 300.41 244.51L300.35 244.55ZM257 228C257.119 228.062 257.251 228.094 257.385 228.094C257.519 228.094 257.651 228.062 257.77 228L262.59 225.21C262.8 225.1 262.79 224.9 262.59 224.77L261.1 223.91C260.98 223.851 260.849 223.82 260.715 223.82C260.582 223.82 260.45 223.851 260.33 223.91L255.51 226.69C255.3 226.81 255.32 227.01 255.51 227.14L257 228ZM199.55 263.5C199.669 263.562 199.801 263.594 199.935 263.594C200.069 263.594 200.201 263.562 200.32 263.5L205.15 260.71C205.35 260.59 205.34 260.39 205.15 260.27L199.57 257.05C199.451 256.989 199.319 256.957 199.185 256.957C199.051 256.957 198.919 256.989 198.8 257.05L194 259.84C193.79 259.95 193.81 260.15 194 260.28L199.55 263.5Z" fill="#455A64"/>
<path d="M230.82 305.83L278.43 278.34C279.236 277.931 280.126 277.717 281.03 277.717C281.934 277.717 282.824 277.931 283.63 278.34L310.93 294.1C312.37 294.93 312.37 296.27 310.93 297.1L263.32 324.59C262.514 324.999 261.624 325.213 260.72 325.213C259.816 325.213 258.926 324.999 258.12 324.59L230.82 308.83C229.39 308 229.39 306.65 230.82 305.83Z" fill="#263238"/>
<path d="M318.38 173.64H318.32L310.19 168.96C309.72 168.75 309.03 168.96 308.19 169.58C300.63 175.36 290.46 177.16 282.19 174.52C281.656 174.021 281.148 173.493 280.67 172.94L280.52 172.77C280.281 172.494 279.997 172.26 279.68 172.08L279.54 172L271.4 167.33C270.47 166.89 269.63 167.33 269.07 168.71C261.21 188.24 244.46 208.03 233.29 212.98C232.445 213.359 231.694 213.919 231.09 214.62C230.287 215.492 229.844 216.635 229.85 217.82L231.46 261.67C231.46 274.34 236.81 287.72 247.72 294.23L256.14 299.09L256.29 299.17C260.842 301.726 265.989 303.034 271.21 302.96C272.38 302.96 273.57 302.91 274.8 302.79C277.192 302.397 279.41 301.288 281.16 299.61C305.57 274.4 317.44 240.28 317.44 221.4L319 175.48C319.06 174.49 318.82 173.88 318.38 173.64Z" fill="#3184C5"/>
<path d="M319 175.48L317.39 221.35C317.39 240.23 305.52 274.35 281.11 299.56C279.36 301.238 277.143 302.347 274.75 302.74C273.52 302.86 272.33 302.91 271.16 302.91C265.94 302.984 260.792 301.676 256.24 299.12L256.09 299.04L255.8 298.86C244.89 292.35 239.54 278.97 239.54 266.3L238 222.45C237.994 221.265 238.437 220.122 239.24 219.25C239.844 218.549 240.595 217.989 241.44 217.61C252.61 212.61 269.36 192.87 277.22 173.34C277.78 171.96 278.63 171.51 279.56 171.95L279.7 172.03C280.017 172.21 280.301 172.444 280.54 172.72L280.69 172.89C289.03 182.6 305.43 182.59 316.38 174.21C317.21 173.58 317.9 173.38 318.38 173.59H318.44C318.82 173.88 319.06 174.49 319 175.48Z" fill="#3184C5"/>
<path opacity="0.4" d="M318.33 173.58C317.86 173.37 317.17 173.58 316.33 174.2C306.02 182.09 290.87 182.56 282.18 174.46C290.49 177.11 300.64 175.31 308.18 169.52C309.01 168.89 309.7 168.69 310.18 168.9L318.33 173.58Z" fill="white"/>
<path opacity="0.4" d="M279.51 171.94C278.58 171.5 277.73 171.94 277.17 173.33C269.31 192.86 252.56 212.65 241.39 217.6C240.545 217.979 239.794 218.539 239.19 219.24C238.98 219.479 238.793 219.737 238.63 220.01L230.51 215.32C230.672 215.052 230.856 214.798 231.06 214.56C231.172 214.429 231.292 214.306 231.42 214.19L231.56 214.05L231.7 213.92C232.162 213.509 232.685 213.171 233.25 212.92C244.42 207.97 261.17 188.18 269.03 168.65C269.59 167.27 270.43 166.83 271.36 167.27L279.51 171.94Z" fill="white"/>
<path d="M231.43 214.17C231.472 214.122 231.519 214.078 231.57 214.04L231.43 214.18C231.43 214.18 231.42 214.17 231.43 214.17Z" fill="#3184C5"/>
<path opacity="0.15" d="M231.57 214L231.43 214.14C231.471 214.088 231.518 214.041 231.57 214Z" fill="black"/>
<path opacity="0.15" d="M256.26 299.11L256.11 299.04L247.69 294.17C236.78 287.66 231.43 274.28 231.43 261.61L229.82 217.76C229.803 216.896 230.043 216.047 230.51 215.32L238.63 220.01C238.17 220.736 237.933 221.581 237.95 222.44L239.56 266.29C239.56 278.96 244.91 292.29 255.82 298.85L256.11 299.03L256.26 299.11Z" fill="black"/>
<path d="M285 258.77L272 266.27L274 242.76C272.45 241.94 271.45 239.92 271.45 237.01C271.45 231.84 274.6 225.82 278.45 223.58C282.3 221.34 285.45 223.72 285.45 228.89C285.372 231.958 284.497 234.953 282.91 237.58L285 258.77Z" fill="#455A64"/>
<path d="M284.98 258.77L273.21 251.97L271.99 266.27L284.98 258.77Z" fill="#37474F"/>
<path d="M278.49 223.58C275.94 225.05 273.73 228.13 272.49 231.53L283 237.58C284.587 234.953 285.462 231.958 285.54 228.89C285.51 223.72 282.37 221.34 278.49 223.58Z" fill="#37474F"/>
<path d="M115.92 395.34V399.24C115.92 403.84 118.92 408.43 125 411.94C134.14 417.21 147.56 418.5 158.81 415.81L169.25 421.81L177.25 419.99L182.72 423.16L183.02 429.77L186.02 431.48L193.43 432.13L198.75 435.13V438.86L205.44 442.71H222.44L228.53 439.2V435.26L174.19 407.83C176.495 405.573 177.842 402.515 177.95 399.29V395.29C177.13 391.47 173.95 389.5 168.88 386.57C156.77 379.57 137.15 379.57 125.04 386.57C119.56 389.77 116.47 391.23 115.92 395.34ZM132.56 390.77C134.485 389.794 136.612 389.286 138.77 389.286C140.928 389.286 143.055 389.794 144.98 390.77C148.41 392.77 148.41 395.96 144.98 397.94C143.055 398.916 140.928 399.425 138.77 399.425C136.612 399.425 134.485 398.916 132.56 397.94C129.13 396 129.13 392.75 132.56 390.77Z" fill="#3184C5"/>
<path opacity="0.1" d="M115.92 395.34V399.24C115.92 403.84 118.92 408.43 125 411.94C134.14 417.21 147.56 418.5 158.81 415.81L169.25 421.81L177.25 419.99L182.72 423.16L183.02 429.77L186.02 431.48L193.43 432.13L198.75 435.13V438.86L205.44 442.71H222.44L228.53 439.2V435.26L174.19 407.83C176.495 405.573 177.842 402.515 177.95 399.29V395.29C177.13 391.47 173.95 389.5 168.88 386.57C156.77 379.57 137.15 379.57 125.04 386.57C119.56 389.77 116.47 391.23 115.92 395.34ZM132.56 390.77C134.485 389.794 136.612 389.286 138.77 389.286C140.928 389.286 143.055 389.794 144.98 390.77C148.41 392.77 148.41 395.96 144.98 397.94C143.055 398.916 140.928 399.425 138.77 399.425C136.612 399.425 134.485 398.916 132.56 397.94C129.13 396 129.13 392.75 132.56 390.77Z" fill="black"/>
<path d="M125 408C134.14 413.28 147.56 414.57 158.81 411.87L169.25 417.87L177.25 416.06L182.72 419.22L183.02 425.84L186.02 427.54L193.43 428.19L199.21 431.41L198.75 434.89L205.44 438.75H222.44L228.53 435.24L174.19 403.86C180.59 397.07 178.83 388.4 168.88 382.66C156.77 375.66 137.15 375.66 125.04 382.66C112.93 389.66 112.89 401 125 408ZM132.56 386.83C134.485 385.854 136.612 385.346 138.77 385.346C140.928 385.346 143.055 385.854 144.98 386.83C148.41 388.83 148.41 392.02 144.98 394C143.055 394.976 140.928 395.485 138.77 395.485C136.612 395.485 134.485 394.976 132.56 394C129.13 392 129.13 388.8 132.56 386.82V386.83Z" fill="#3184C5"/>
<path opacity="0.3" d="M146.92 409.8C139.23 409.8 132.06 408.1 126.72 405.02C122.04 402.32 119.35 398.79 119.35 395.34C119.35 391.89 122.04 388.34 126.72 385.65C132.06 382.57 139.23 380.87 146.92 380.87C154.61 380.87 161.78 382.57 167.12 385.65C171.8 388.36 174.49 391.88 174.49 395.34C174.49 398.8 171.8 402.34 167.12 405.02C161.78 408.1 154.61 409.8 146.92 409.8ZM146.92 382.25C139.47 382.25 132.54 383.88 127.4 386.84C123.16 389.29 120.73 392.39 120.73 395.34C120.73 398.29 123.16 401.34 127.4 403.83C132.54 406.83 139.47 408.43 146.92 408.43C154.37 408.43 161.3 406.79 166.44 403.83C170.68 401.38 173.11 398.28 173.11 395.34C173.11 392.4 170.68 389.34 166.44 386.84C161.3 383.88 154.37 382.25 146.92 382.25Z" fill="black"/>
<path opacity="0.1" d="M135.76 412V416C143.361 417.653 151.233 417.598 158.81 415.84V411.9C151.228 413.634 143.357 413.668 135.76 412Z" fill="black"/>
<path opacity="0.1" d="M169.25 417.89V421.84L177.27 420.02V416.08L169.25 417.89Z" fill="black"/>
<path opacity="0.1" d="M182.74 419.24V423.19L183.04 429.8V425.86L182.74 419.24Z" fill="black"/>
<path opacity="0.1" d="M185.99 427.56V431.51L193.4 432.16V428.21L185.99 427.56Z" fill="black"/>
<path opacity="0.1" d="M222.4 438.77H205.41V442.72H222.4V438.77Z" fill="black"/>
<path opacity="0.15" d="M228.49 435.25V439.2L222.4 442.71V438.77L225.06 437.23V438.93L226.54 438.08V436.36L228.49 435.25Z" fill="black"/>
<path d="M226.54 436.36L225.06 437.23V438.93L226.54 438.08V436.36Z" fill="#3184C5"/>
<path opacity="0.15" d="M226.54 436.36V438.08L170.81 405.9L172.28 405.04L226.54 436.36Z" fill="black"/>
<path opacity="0.15" d="M172.28 405.04V406.76L170.81 405.9L172.28 405.04Z" fill="black"/>
<path d="M414.53 288.56C415.24 262.56 413.15 256.27 406.21 251.5L403.53 266.59C403.53 266.59 406.69 284.38 406.35 290.3C406.05 295.51 405.54 302.02 404.35 306.22C404.123 306.965 403.632 307.601 402.97 308.01C401.53 309.027 400.246 310.25 399.16 311.64C398.16 312.73 397.24 313 397.37 313.35C397.573 313.731 397.912 314.022 398.32 314.164C398.727 314.307 399.174 314.291 399.57 314.12C400.457 313.774 401.298 313.317 402.07 312.76C401.463 314.36 400.598 315.849 399.51 317.17C397.03 320.17 396.92 322.07 401.92 322.12C405.06 322.12 407.56 320.21 409.92 313.31C410.837 310.783 411.573 308.193 412.12 305.56C413.27 298.73 414.42 292.75 414.53 288.56Z" fill="#B16668"/>
<path d="M400.38 249.52C402.511 249.143 404.707 249.467 406.639 250.444C408.57 251.422 410.132 252.999 411.09 254.94C414 260.13 414.71 269.07 415.09 277.94C415.09 277.94 409.32 282.77 402.4 280.4L400.38 249.52Z" fill="#3184C5"/>
<path opacity="0.7" d="M400.38 249.52C402.511 249.143 404.707 249.467 406.639 250.444C408.57 251.422 410.132 252.999 411.09 254.94C414 260.13 414.71 269.07 415.09 277.94C415.09 277.94 409.32 282.77 402.4 280.4L400.38 249.52Z" fill="black"/>
<path d="M410.12 392.78C410.64 392.98 410.77 393.98 410.85 395.97C410.91 397.47 411.24 400.1 409.47 400.63C407.7 401.16 405.12 400.88 403.99 399.46C402.623 397.558 401.161 395.725 399.61 393.97C397.87 392.1 395.98 390.34 395.27 387.71C394.64 385.34 395.17 384.31 396.79 383.62C399.02 382.62 402.52 385.77 404.27 386.26C405.77 386.68 409.59 392.58 410.12 392.78Z" fill="#263238"/>
<path d="M410.12 390.93V393.38C409.201 393.965 408.141 394.289 407.052 394.317C405.964 394.345 404.888 394.077 403.94 393.54C403.83 393.31 403.3 390.05 403.3 390.05L410.12 390.93Z" fill="#B16668"/>
<path d="M390.32 406.86C390.75 408.173 391.111 409.508 391.4 410.86C391.7 412.34 392.13 414.86 391.62 415.92C391.11 416.98 389.08 417.75 385.95 417.73C383.95 417.73 380.77 419.09 378.61 420.3C376.45 421.51 371.73 422.04 369.36 421.76C366.58 421.43 363.7 419.82 363.25 418.67C362.8 417.52 363.39 416.32 369.96 413.52C370.02 413.52 379.08 410.52 382.25 407.05L390.32 406.86Z" fill="#263238"/>
<path d="M390.32 404.22V407.07C390.32 408.07 389.11 409.65 385.94 409.54C383.72 409.46 382.16 408.86 382.25 407.03V404.38L390.32 404.22Z" fill="#B16668"/>
<path d="M411.71 358.5C411.167 354.172 410.199 349.908 408.82 345.77C408.82 345.77 409.69 334.77 410.11 324.38C410.56 313.13 410.11 299 410.3 296.19C410.3 296.19 374.01 288.85 373.36 301.85C372.71 314.85 374.8 347.94 375.23 353.65C375.66 359.36 376.64 364.42 377.82 373.65C379 382.88 382.25 404.36 382.25 404.36C383.505 404.998 384.898 405.317 386.305 405.29C387.713 405.262 389.092 404.887 390.32 404.2C390.32 404.2 392.88 378.2 392.61 371.61C392.403 366.729 391.562 361.895 390.11 357.23C390.11 357.23 390.8 346.51 391.41 337.23C392.02 327.95 392.66 323.42 392.8 319.37L393.58 318.98C393.58 318.98 394.38 335.07 394.81 340.78C395.24 346.49 396.14 351.96 397.81 362.57C399.25 371.78 403.52 391.25 403.52 391.25C407.66 393.49 410.14 390.95 410.14 390.95C410.14 390.95 412.82 366.49 411.71 358.5Z" fill="#37474F"/>
<path d="M392.8 319.35C392.8 319.35 401.6 315 406 311.1C406 311.1 401.91 316.86 396.54 319.42C396.54 319.42 394.63 339.42 394.64 339L393.53 319.32L392.8 319.35Z" fill="#263238"/>
<path d="M384.96 245.41L387.11 257.23L397.79 256.44L395.55 243.05L384.96 245.41Z" fill="#B16668"/>
<path d="M409.06 255.58C408.01 252.37 403.93 248.87 399.85 249.58C393.794 250.625 387.826 252.133 382 254.09C378.27 255.42 374.86 258.65 374.55 270.94C374.55 270.94 373.3 299.58 373.28 305.12C381.076 308.179 389.567 309.016 397.81 307.54C409.03 305.09 410.39 300.43 410.39 300.43C410.39 300.43 410.53 279.83 410.19 270.94C409.89 263.38 409.79 257.79 409.06 255.58Z" fill="#3184C5"/>
<g opacity="0.15">
<path d="M409.06 255.58C408.01 252.37 403.93 248.87 399.85 249.58C393.794 250.625 387.826 252.133 382 254.09C378.27 255.42 374.86 258.65 374.55 270.94C374.55 270.94 373.3 299.58 373.28 305.12C381.076 308.179 389.567 309.016 397.81 307.54C409.03 305.09 410.39 300.43 410.39 300.43C410.39 300.43 410.53 279.83 410.19 270.94C409.89 263.38 409.79 257.79 409.06 255.58Z" fill="black"/>
</g>
<path d="M376.73 231C376.73 231 374.02 235.32 374.35 235.73C374.68 236.14 376.75 236.47 376.75 236.47L376.73 231Z" fill="#9A4A4D"/>
<path d="M384.24 219.09C378.6 220.41 377.02 222.94 376.69 231.97C376.34 241.39 377.37 244.33 378.63 245.57C379.49 246.41 384.13 246.46 386.46 245.76C389.37 244.89 395.94 242.39 398.93 237.59C402.45 231.93 403.24 224.36 399.27 221.35C393.67 217.11 386.54 218.55 384.24 219.09Z" fill="#B16668"/>
<path d="M376.75 221.44C378.045 223.327 379.873 224.786 382 225.63C383.08 226.86 382.49 231.63 384.39 232.43C384.39 232.43 385.21 228.93 388.15 229.31C391.09 229.69 391.6 233.43 389.79 235.76C387.98 238.09 386.23 237.25 386.23 237.25C386.23 237.25 386.43 242.25 388.7 244.99C388.7 244.99 391.22 245.75 395.82 244.66C398.64 243.99 402.57 240.36 404.17 236.57C407.56 228.57 407.64 221.4 402.53 219.37C401.9 215.72 398.98 214.15 395.68 213.47C388.57 212 383.99 216.47 378.52 216.05C375.39 215.83 374.81 218.11 376.75 221.44Z" fill="#263238"/>
<path d="M402.64 220.59L405.99 218.52C405.882 218.248 405.716 218.003 405.504 217.802C405.291 217.602 405.037 217.45 404.76 217.358C404.482 217.266 404.188 217.236 403.898 217.27C403.607 217.304 403.328 217.401 403.079 217.555C402.831 217.709 402.619 217.915 402.458 218.159C402.298 218.404 402.193 218.681 402.151 218.97C402.109 219.259 402.131 219.554 402.216 219.834C402.3 220.114 402.445 220.372 402.64 220.59Z" fill="#263238"/>
<path d="M336.84 275.37C338.59 276.15 359.28 291.43 362.5 289.65C365.72 287.87 382.27 268.54 382.27 268.54C383.668 266.38 384.412 263.862 384.412 261.29C384.412 258.717 383.668 256.199 382.27 254.04C382.27 254.04 376.97 255.04 374.19 259.22C371.41 263.4 359.43 278.45 359.43 278.45C356.47 276.97 353.517 275.47 350.57 273.95C348.15 272.69 345.72 271.44 343.35 270.09C342.684 269.781 342.056 269.395 341.48 268.94C340.31 267.78 340.48 264.94 340.54 263.46C340.54 262.75 340.54 262.04 340.64 261.33C340.74 260.46 340.91 258.33 339.34 259.01C339.043 259.151 338.785 259.364 338.59 259.63C338.349 259.955 338.16 260.316 338.03 260.7C337.74 261.62 337.83 262.63 337.56 263.56C337.528 263.696 337.462 263.823 337.37 263.93C337.231 264.038 337.056 264.091 336.88 264.08C334.6 264.01 332.44 260.81 331.39 259.08C331.027 258.255 330.424 257.558 329.66 257.08C328.42 256.49 326.92 257.33 326.11 258.45C325.134 259.922 324.736 261.702 324.99 263.45C325.201 265.842 326.266 268.078 327.99 269.75C330.595 272.117 333.589 274.018 336.84 275.37Z" fill="#B16668"/>
<path d="M384 253.42C381.72 253.68 377.93 253.85 374.21 258.06C369.83 263 364.12 271 364.12 271C364.703 273.366 365.957 275.513 367.731 277.184C369.505 278.855 371.723 279.979 374.12 280.42C374.12 280.42 381.95 272.42 384.12 267.98C386.29 263.54 386.65 256.4 384 253.42Z" fill="#3184C5"/>
<path opacity="0.7" d="M384 253.42C381.72 253.68 377.93 253.85 374.21 258.06C369.83 263 364.12 271 364.12 271C364.703 273.366 365.957 275.513 367.731 277.184C369.505 278.855 371.723 279.979 374.12 280.42C374.12 280.42 381.95 272.42 384.12 267.98C386.29 263.54 386.65 256.4 384 253.42Z" fill="black"/>
</svg>
