<svg width="24" height="24" viewBox="0 0 24 24" fill="none" xmlns="http://www.w3.org/2000/svg">
<path fill-rule="evenodd" clip-rule="evenodd" d="M3.51298 7.00249C3.53855 7.14317 3.44509 7.27695 3.30441 7.30254C3.16373 7.32812 3.02994 7.23466 3.00436 7.09398L2.84105 6.18396C0.345143 9.97156 0.485827 14.9308 3.19323 18.5768C3.27882 18.6919 3.25423 18.8533 3.13913 18.9389C3.02402 19.0245 2.86267 18.9999 2.77709 18.8848C-0.0464213 15.0833 -0.210629 9.92438 2.36783 5.95973L1.44207 6.20765C1.30336 6.24503 1.16169 6.16239 1.12431 6.02368C1.08694 5.88496 1.16957 5.74329 1.3073 5.70591L2.91678 5.27502V5.276C3.06533 5.23665 3.21487 5.3311 3.23945 5.49047L3.50999 7.00355L3.51298 7.00249ZM17.0009 3.76493C16.8602 3.79051 16.7264 3.69705 16.7008 3.55637C16.6753 3.41568 16.7687 3.2819 16.9094 3.25631L17.8194 3.093C14.0318 0.597096 9.07261 0.737781 5.42655 3.44519C5.31145 3.53078 5.15009 3.50618 5.06451 3.39108C4.97893 3.27696 5.00352 3.11462 5.11862 3.02904C8.92007 0.205532 14.079 0.0413246 18.0437 2.61978L17.7957 1.69403C17.7584 1.55531 17.841 1.41364 17.9787 1.37627C18.1174 1.33888 18.2591 1.42152 18.2965 1.56024L18.7274 3.16972H18.7264C18.7658 3.31827 18.6713 3.46781 18.5119 3.49239L16.9989 3.76293L17.0009 3.76493ZM20.2385 17.2529C20.2129 17.1122 20.3063 16.9784 20.447 16.9528C20.5877 16.9272 20.7215 17.0207 20.7471 17.1614L20.9104 18.0714C23.4073 14.2838 23.2656 9.32456 20.5582 5.6785C20.4726 5.5634 20.4972 5.40205 20.6123 5.31647C20.7274 5.23088 20.8888 5.25547 20.9743 5.37058C23.7979 9.17203 23.9621 14.331 21.3836 18.2956L22.3094 18.0477C22.4481 18.0103 22.5897 18.093 22.6271 18.2317C22.6645 18.3704 22.5819 18.5121 22.4441 18.5494L20.8347 18.9803V18.9793C20.6861 19.0187 20.5366 18.9242 20.512 18.7649L20.2414 17.2518L20.2385 17.2529ZM6.75053 20.4904C6.89121 20.4648 7.025 20.5583 7.05059 20.699C7.07618 20.8397 6.98271 20.9734 6.84202 20.999L5.93201 21.1623C9.71961 23.6592 14.6788 23.5176 18.3249 20.8102C18.44 20.7246 18.6013 20.7492 18.6869 20.8643C18.7725 20.9784 18.7479 21.1407 18.6328 21.2263C14.8314 24.0498 9.67243 24.214 5.70777 21.6356L5.95569 22.5613C5.99308 22.7 5.91044 22.8417 5.77271 22.8791C5.63399 22.9165 5.49232 22.8338 5.45495 22.6951L5.02405 21.0856H5.02504C4.98568 20.9371 5.08013 20.7875 5.2395 20.7629L6.75258 20.4924L6.75053 20.4904ZM6.3649 16.3467C6.22126 16.3467 6.10519 16.2306 6.10519 16.087C6.10519 15.9434 6.22128 15.8273 6.3649 15.8273H7.33886C7.48249 15.8273 7.59857 15.9434 7.59857 16.087C7.59857 16.2306 7.48248 16.3467 7.33886 16.3467H6.3649ZM6.3649 17.2783C6.22126 17.2783 6.10519 17.1623 6.10519 17.0186C6.10519 16.875 6.22128 16.7589 6.3649 16.7589H7.33886C7.48249 16.7589 7.59857 16.875 7.59857 17.0186C7.59857 17.1623 7.48248 17.2783 7.33886 17.2783H6.3649ZM12.7516 16.3467C12.608 16.3467 12.4919 16.2306 12.4919 16.087C12.4919 15.9434 12.608 15.8273 12.7516 15.8273H13.7256C13.8692 15.8273 13.9853 15.9434 13.9853 16.087C13.9853 16.2306 13.8692 16.3467 13.7256 16.3467H12.7516ZM12.7516 17.2783C12.608 17.2783 12.4919 17.1623 12.4919 17.0186C12.4919 16.875 12.608 16.7589 12.7516 16.7589H13.7256C13.8692 16.7589 13.9853 16.875 13.9853 17.0186C13.9853 17.1623 13.8692 17.2783 13.7256 17.2783H12.7516ZM9.12544 12.0131H8.24003V13.0422L8.49287 12.7687C8.59518 12.6575 8.77031 12.6585 8.87261 12.7697L9.12544 13.0432V12.0131ZM11.6164 12.0131H9.64489V13.7033H9.6439C9.6439 13.9364 9.35566 14.0515 9.19629 13.8784L8.68372 13.3235L8.18888 13.8587C8.01377 14.0683 7.72255 13.9315 7.72255 13.7023V12.0122H5.75103V17.8795H11.6184V12.0122L11.6164 12.0131ZM14.1084 12.0131H12.1349V17.8805H18.0023V12.0131H16.0307V13.7033H16.0298C16.0298 13.9364 15.7415 14.0515 15.5821 13.8784L15.0696 13.3235L14.5649 13.8696C14.3986 14.0565 14.1094 13.9345 14.1094 13.7023V12.0122L14.1084 12.0131ZM15.0695 12.0131H15.5112V13.0422L15.2584 12.7687C15.1561 12.6575 14.981 12.6575 14.8787 12.7677L14.6249 13.0422V12.0121H15.0695V12.0131ZM12.8373 5.62642V7.31657H12.8363C12.8363 7.54973 12.5481 7.66483 12.3887 7.49168L11.8761 6.93683L11.3714 7.48284C11.2052 7.66977 10.9159 7.54777 10.9159 7.3156V5.62545H8.94245V11.4928H14.8098V5.62545H12.8383L12.8373 5.62642ZM11.4324 5.62642H12.3188V6.65546L12.066 6.38197C11.9637 6.2708 11.7886 6.2708 11.6862 6.38099L11.4324 6.65546V5.62543V5.62642ZM9.55928 9.92956C9.41565 9.92956 9.29957 9.81347 9.29957 9.66985C9.29957 9.52621 9.41566 9.41014 9.55928 9.41014H10.5332C10.6769 9.41014 10.793 9.52623 10.793 9.66985C10.793 9.81348 10.6769 9.92956 10.5332 9.92956H9.55928ZM9.55928 10.8917C9.41565 10.8917 9.29957 10.7756 9.29957 10.632C9.29957 10.4884 9.41566 10.3723 9.55928 10.3723H10.5332C10.6769 10.3723 10.793 10.4884 10.793 10.632C10.793 10.7756 10.6769 10.8917 10.5332 10.8917H9.55928Z" fill="black"/>
</svg>
