<svg width="14" height="18" viewBox="0 0 14 18" fill="none" xmlns="http://www.w3.org/2000/svg">
<path fill-rule="evenodd" clip-rule="evenodd" d="M11.9714 7.68525H11.4464L11.4472 5.07005C11.4472 2.72614 9.52866 0.807617 7.18475 0.807617C4.84084 0.807617 2.92232 2.72614 2.92232 5.07005V7.68525H2.39733C1.56365 7.68525 0.88147 8.36743 0.88147 9.2011V15.8836C0.88147 16.7172 1.56365 17.3994 2.39733 17.3994H11.9713C12.8049 17.3994 13.4871 16.7172 13.4871 15.8836L13.4879 9.2011C13.4879 8.36743 12.8058 7.68525 11.9714 7.68525ZM4.8158 5.07005C4.8158 3.76728 5.882 2.70104 7.18481 2.70104C8.48762 2.70104 9.55381 3.76724 9.55381 5.07005V7.68525H4.8158V5.07005ZM7.82321 12.433V14.3928C7.82321 14.7437 7.53721 15.0313 7.18479 15.0313C6.83398 15.0313 6.54637 14.7453 6.54637 14.3928V12.433C6.16478 12.2134 5.90956 11.8003 5.90956 11.3295C5.90956 10.6247 6.47993 10.0543 7.18479 10.0543C7.88964 10.0543 8.46001 10.6247 8.46001 11.3295C8.46001 11.8003 8.20318 12.2126 7.82321 12.433Z" fill="#9F9F9F"/>
</svg>
