<svg width="33" height="32" viewBox="0 0 33 32" fill="none" xmlns="http://www.w3.org/2000/svg">
<rect x="0.93457" y="0.25" width="31.6905" height="31.5" rx="11.75" stroke="#D5D5D5" stroke-width="0.5"/>
<path fill-rule="evenodd" clip-rule="evenodd" d="M12.8333 23.0198C11.6879 23.0198 10.7592 22.0911 10.7592 20.9458V11.1995C10.7592 10.0541 11.6879 9.12543 12.8333 9.12543H16.8769C17.3676 9.12543 17.7658 8.72728 17.7658 8.23654C17.7658 7.74581 17.3676 7.34766 16.8769 7.34766H12.8333C10.7064 7.34766 8.98145 9.07172 8.98145 11.1995V20.9458C8.98145 23.0726 10.7064 24.7976 12.8333 24.7976H16.8769C17.3676 24.7976 17.7658 24.3995 17.7658 23.9087C17.7658 23.418 17.3676 23.0198 16.8769 23.0198H12.8333ZM19.399 19.9699C19.7462 20.3171 20.3092 20.3171 20.6564 19.9699L23.9249 16.7014C24.0916 16.5347 24.1851 16.3088 24.1851 16.0727C24.1851 15.8366 24.0916 15.6106 23.9249 15.444L20.6564 12.1755C20.3092 11.8283 19.7462 11.8283 19.399 12.1755C19.0518 12.5218 19.0518 13.0847 19.399 13.432L21.1508 15.1838H14.7833C14.2926 15.1838 13.8944 15.582 13.8944 16.0727C13.8944 16.5634 14.2926 16.9616 14.7833 16.9616H21.1508L19.399 18.7134C19.0518 19.0607 19.0518 19.6226 19.399 19.9699Z" fill="black"/>
</svg>
