<svg width="20" height="21" viewBox="0 0 20 21" fill="none" xmlns="http://www.w3.org/2000/svg">
<path fill-rule="evenodd" clip-rule="evenodd" d="M7.21664 18.8038H1.05131C0.501364 18.8038 0.0517578 18.367 0.0517578 17.8338L0.0527414 2.93624C0.0527414 2.40204 0.502348 1.96621 1.05229 1.96621H4.27826C4.30286 1.96621 4.32253 1.94653 4.32253 1.92292V1.64944C4.32253 1.39955 4.53208 1.1959 4.78984 1.1959H6.00483C6.01958 1.1959 6.03139 1.19 6.04025 1.17918C6.0491 1.16836 6.05205 1.15557 6.04812 1.14179C5.89956 0.602678 6.31473 0.0527344 6.90993 0.0527344C7.50415 0.0527344 7.92028 0.602678 7.77174 1.14179C7.7678 1.15557 7.77076 1.16835 7.77961 1.17918C7.78846 1.19 7.80027 1.1959 7.81503 1.1959H9.03001C9.28775 1.1959 9.49732 1.39955 9.49732 1.64944V1.92292C9.49732 1.94653 9.517 1.96621 9.54159 1.96621H12.7666C13.3165 1.96621 13.7661 2.40302 13.7661 2.93624V8.03045C13.7661 8.04619 13.7582 8.05997 13.7435 8.06784L13.1571 8.39643C13.1434 8.4043 13.1266 8.4043 13.1129 8.39643C13.0991 8.38856 13.0902 8.37478 13.0902 8.35904V2.93642C13.0902 2.76524 12.9437 2.62259 12.7666 2.62259H9.54059C9.516 2.62259 9.49632 2.64226 9.49632 2.66587V2.76819C9.49632 3.01807 9.28677 3.22172 9.02901 3.22172H4.78883C4.53109 3.22172 4.32152 3.01808 4.32152 2.76819V2.66587C4.32152 2.64226 4.30184 2.62259 4.27725 2.62259H1.05128C0.874197 2.62259 0.727599 2.76524 0.727599 2.93642V17.833C0.727599 18.0041 0.874185 18.1468 1.05128 18.1468H7.21586C7.24045 18.1468 7.26013 18.1665 7.26013 18.1901V18.7597C7.26111 18.7843 7.24124 18.8038 7.21664 18.8038ZM11.9142 14.6865L10.71 14.0117C10.6963 14.0038 10.6795 14.0038 10.6658 14.0117L8.34104 15.3152C8.32727 15.3231 8.31841 15.3368 8.31841 15.3526C8.31841 15.3683 8.32628 15.3821 8.34104 15.39L10.6658 16.6935C10.6795 16.7014 10.6963 16.7014 10.71 16.6935L13.0347 15.39C13.0485 15.3821 13.0574 15.3683 13.0574 15.3526C13.0574 15.3368 13.0495 15.3231 13.0347 15.3152L11.9142 14.6865ZM16.6777 17.3574L14.1651 15.9486C14.1513 15.9408 14.1346 15.9408 14.1208 15.9486C14.107 15.9565 14.0982 15.9703 14.0982 15.986V18.5932C14.0982 18.6089 14.1061 18.6227 14.1208 18.6306L16.8204 20.1446C16.8342 20.1525 16.8509 20.1525 16.8647 20.1446L19.5643 18.6306C19.5781 18.6227 19.5869 18.6089 19.5869 18.5932V15.986C19.5869 15.9703 19.579 15.9565 19.5643 15.9486C19.5505 15.9408 19.5338 15.9408 19.52 15.9486L17.0123 17.3545C16.913 17.4125 16.7849 17.4174 16.6777 17.3574ZM16.8204 14.0116C16.8341 14.0037 16.8509 14.0037 16.8646 14.0116L19.1893 15.3151C19.2031 15.323 19.212 15.3368 19.212 15.3525C19.212 15.3682 19.2041 15.382 19.1893 15.3899L16.8646 16.6934C16.8509 16.7013 16.8341 16.7013 16.8204 16.6934L14.4956 15.3899C14.4819 15.382 14.473 15.3682 14.473 15.3525C14.473 15.3368 14.4809 15.323 14.4956 15.3151L16.8204 14.0116ZM13.0899 11.1488L13.7432 11.5147C13.757 11.5226 13.7737 11.5226 13.7875 11.5147L16.1122 10.2112C16.1259 10.2033 16.1348 10.1896 16.1348 10.1738C16.1348 10.1581 16.1269 10.1443 16.1122 10.1364L13.7875 8.83291C13.7737 8.82504 13.757 8.82504 13.7432 8.83291L11.4185 10.1364C11.4047 10.1443 11.3958 10.1581 11.3958 10.1738C11.3958 10.1896 11.4037 10.2033 11.4185 10.2112L13.0899 11.1488ZM11.0436 13.4528L13.7432 14.9669C13.757 14.9747 13.7737 14.9747 13.7875 14.9669L16.4871 13.4528C16.5009 13.445 16.5097 13.4312 16.5097 13.4154V10.8093C16.5097 10.7935 16.5019 10.7798 16.4871 10.7719C16.4733 10.764 16.4566 10.764 16.4428 10.7719L13.9351 12.1777C13.8309 12.2368 13.704 12.2397 13.5987 12.1797L11.088 10.7719C11.0743 10.764 11.0575 10.764 11.0438 10.7719C11.03 10.7798 11.0211 10.7935 11.0211 10.8093V13.4154C11.0211 13.4312 11.0289 13.445 11.0436 13.4528ZM10.5183 17.3545L8.01061 15.9487C7.99683 15.9408 7.98011 15.9408 7.96634 15.9487C7.95256 15.9565 7.94371 15.9703 7.94371 15.9861V18.5932C7.94371 18.609 7.95158 18.6227 7.96634 18.6306L10.6659 20.1447C10.6797 20.1525 10.6964 20.1525 10.7102 20.1447L13.4098 18.6306C13.4236 18.6227 13.4324 18.609 13.4324 18.5932V15.9861C13.4324 15.9703 13.4246 15.9565 13.4098 15.9487C13.396 15.9408 13.3793 15.9408 13.3655 15.9487L10.8529 17.3575C10.7457 17.4175 10.6177 17.4126 10.5183 17.3545ZM1.7123 6.75104L2.55738 7.59319C2.69413 7.72895 2.91942 7.72305 3.04829 7.57843L4.53578 5.89417C4.65482 5.75841 4.63908 5.55475 4.49938 5.43867C4.35968 5.32258 4.15014 5.33832 4.03109 5.47409L2.81218 6.85436C2.80332 6.8642 2.7925 6.86912 2.77971 6.86912C2.76692 6.86912 2.75511 6.86518 2.74626 6.85633L2.18846 6.30147C2.06057 6.17358 1.85002 6.17063 1.7182 6.29557C1.58736 6.41854 1.5844 6.62315 1.7123 6.75104ZM5.37498 14.2111H7.44291C7.62688 14.2111 7.77641 14.0665 7.77641 13.8875C7.77641 13.7084 7.62687 13.5638 7.44291 13.5638H5.37498C5.19101 13.5638 5.04147 13.7084 5.04147 13.8875C5.04147 14.0665 5.19101 14.2111 5.37498 14.2111ZM1.7123 13.7566L2.55738 14.5988C2.69413 14.7345 2.91942 14.7286 3.04829 14.584L4.53578 12.8998C4.65482 12.764 4.63908 12.5603 4.49938 12.4443C4.35968 12.3282 4.15014 12.3439 4.03109 12.4797L2.81218 13.8599C2.80332 13.8698 2.7925 13.8747 2.77971 13.8747C2.76692 13.8747 2.75511 13.8708 2.74626 13.8619L2.18846 13.3071C2.06057 13.1792 1.85002 13.1762 1.7182 13.3012C1.58736 13.4241 1.5844 13.6287 1.7123 13.7566ZM5.37498 10.708H8.8115C8.99547 10.708 9.145 10.5633 9.145 10.3843C9.145 10.2052 8.99546 10.0606 8.8115 10.0606H5.37498C5.19101 10.0606 5.04147 10.2052 5.04147 10.3843C5.04147 10.5633 5.19101 10.708 5.37498 10.708ZM1.7123 10.2534L2.55738 11.0956C2.69413 11.2314 2.91942 11.2254 3.04829 11.0808L4.53578 9.39657C4.65482 9.26081 4.63908 9.05715 4.49938 8.94107C4.35968 8.82499 4.15014 8.84073 4.03109 8.97649L2.81218 10.3568C2.80332 10.3666 2.7925 10.3715 2.77971 10.3715C2.76692 10.3715 2.75511 10.3676 2.74626 10.3587L2.18846 9.80388C2.06057 9.67598 1.85002 9.67303 1.7182 9.79797C1.58736 9.92193 1.5844 10.1265 1.7123 10.2534ZM5.37498 7.20554H10.2949C10.4789 7.20554 10.6284 7.06092 10.6284 6.88186C10.6284 6.70279 10.4789 6.55817 10.2949 6.55817H5.37498C5.19101 6.55817 5.04147 6.70279 5.04147 6.88186C5.04147 7.05992 5.19101 7.20554 5.37498 7.20554Z" fill="black"/>
</svg>
